<svg xmlns="http://www.w3.org/2000/svg" viewBox="0 0 407.333 304" height="304" width="407.333"><g opacity=".8"><g transform="translate(-.1)"><linearGradient y2="29.724" x2="140.908" y1="6.92" x1="140.908" gradientUnits="userSpaceOnUse" id="a"><stop offset="0" stop-color="#fff"/><stop offset="1" stop-color="#fff" stop-opacity="0"/></linearGradient><circle r="11.4" cy="18.322" cx="140.908" fill="url(#a)"/><linearGradient y2="53.821" x2="130.001" y1="39.795" x1="130.001" gradientUnits="userSpaceOnUse" id="b"><stop offset="0" stop-color="#fff"/><stop offset="1" stop-color="#fff" stop-opacity="0"/></linearGradient><circle r="7.014" cy="46.808" cx="130.001" fill="url(#b)"/><linearGradient y2="83.835" x2="143.839" y1="69.809" x1="143.839" gradientUnits="userSpaceOnUse" id="c"><stop offset="0" stop-color="#fff"/><stop offset="1" stop-color="#fff" stop-opacity="0"/></linearGradient><circle r="7.014" cy="76.822" cx="143.839" fill="url(#c)"/><linearGradient y2="103.994" x2="131.109" y1="93.679" x1="131.109" gradientUnits="userSpaceOnUse" id="d"><stop offset="0" stop-color="#fff"/><stop offset="1" stop-color="#fff" stop-opacity="0"/></linearGradient><circle r="5.156" cy="98.836" cx="131.109" fill="url(#d)"/><linearGradient y2="24.31" x2="118.218" y1="15.683" x1="118.218" gradientUnits="userSpaceOnUse" id="e"><stop offset="0" stop-color="#fff"/><stop offset="1" stop-color="#fff" stop-opacity="0"/></linearGradient><circle r="4.312" cy="19.997" cx="118.218" fill="url(#e)"/><linearGradient y2="32.413" x2="120.075" y1="27.499" x1="120.075" gradientUnits="userSpaceOnUse" id="f"><stop offset="0" stop-color="#fff"/><stop offset="1" stop-color="#fff" stop-opacity="0"/></linearGradient><circle r="2.456" cy="29.955" cx="120.075" fill="url(#f)"/><linearGradient y2="42.221" x2="118.284" y1="37.307" x1="118.284" gradientUnits="userSpaceOnUse" id="g"><stop offset="0" stop-color="#fff"/><stop offset="1" stop-color="#fff" stop-opacity="0"/></linearGradient><circle r="2.458" cy="39.764" cx="118.284" fill="url(#g)"/><linearGradient y2="52.347" x2="114.233" y1="47.434" x1="114.233" gradientUnits="userSpaceOnUse" id="h"><stop offset="0" stop-color="#fff"/><stop offset="1" stop-color="#fff" stop-opacity="0"/></linearGradient><circle r="2.456" cy="49.889" cx="114.233" fill="url(#h)"/><linearGradient y2="59.773" x2="117.608" y1="54.861" x1="117.608" gradientUnits="userSpaceOnUse" id="i"><stop offset="0" stop-color="#fff"/><stop offset="1" stop-color="#fff" stop-opacity="0"/></linearGradient><circle r="2.456" cy="57.317" cx="117.608" fill="url(#i)"/><linearGradient y2="68.549" x2="122.67" y1="63.636" x1="122.67" gradientUnits="userSpaceOnUse" id="j"><stop offset="0" stop-color="#fff"/><stop offset="1" stop-color="#fff" stop-opacity="0"/></linearGradient><path d="M125.126 66.093a2.455 2.455 0 11-4.912 0 2.456 2.456 0 114.912 0z" fill="url(#j)"/><linearGradient y2="78.002" x2="118.959" y1="73.089" x1="118.959" gradientUnits="userSpaceOnUse" id="k"><stop offset="0" stop-color="#fff"/><stop offset="1" stop-color="#fff" stop-opacity="0"/></linearGradient><circle r="2.457" cy="75.544" cx="118.958" fill="url(#k)"/><linearGradient y2="85.842" x2="122.501" y1="82.462" x1="122.501" gradientUnits="userSpaceOnUse" id="l"><stop offset="0" stop-color="#fff"/><stop offset="1" stop-color="#fff" stop-opacity="0"/></linearGradient><circle r="1.689" cy="84.152" cx="122.501" fill="url(#l)"/><linearGradient y2="111.492" x2="132.538" y1="106.578" x1="132.538" gradientUnits="userSpaceOnUse" id="m"><stop offset="0" stop-color="#fff"/><stop offset="1" stop-color="#fff" stop-opacity="0"/></linearGradient><circle r="2.456" cy="109.035" cx="132.538" fill="url(#m)"/><linearGradient y2="17.33" x2="102.464" y1="2.207" x1="102.464" gradientUnits="userSpaceOnUse" id="n"><stop offset="0" stop-color="#fff"/><stop offset="1" stop-color="#fff" stop-opacity="0"/></linearGradient><circle r="7.561" cy="9.768" cx="102.464" fill="url(#n)"/></g><g transform="translate(-.1)"><linearGradient y2="146.378" x2="138.558" y1="129.769" x1="138.558" gradientUnits="userSpaceOnUse" id="o"><stop offset="0" stop-color="#fff"/><stop offset="1" stop-color="#fff" stop-opacity="0"/></linearGradient><circle r="8.305" cy="138.074" cx="138.558" fill="url(#o)"/><linearGradient y2="163.931" x2="130.612" y1="153.714" x1="130.612" gradientUnits="userSpaceOnUse" id="p"><stop offset="0" stop-color="#fff"/><stop offset="1" stop-color="#fff" stop-opacity="0"/></linearGradient><circle r="5.108" cy="158.824" cx="130.612" fill="url(#p)"/><linearGradient y2="185.794" x2="140.693" y1="175.577" x1="140.693" gradientUnits="userSpaceOnUse" id="q"><stop offset="0" stop-color="#fff"/><stop offset="1" stop-color="#fff" stop-opacity="0"/></linearGradient><circle r="5.109" cy="180.685" cx="140.693" fill="url(#q)"/><linearGradient y2="200.476" x2="131.419" y1="192.963" x1="131.419" gradientUnits="userSpaceOnUse" id="r"><stop offset="0" stop-color="#fff"/><stop offset="1" stop-color="#fff" stop-opacity="0"/></linearGradient><circle r="3.756" cy="196.721" cx="131.419" fill="url(#r)"/><linearGradient y2="122.819" x2="101.506" y1="116.536" x1="101.506" gradientUnits="userSpaceOnUse" id="s"><stop offset="0" stop-color="#fff"/><stop offset="1" stop-color="#fff" stop-opacity="0"/></linearGradient><circle r="3.142" cy="119.677" cx="101.506" fill="url(#s)"/><linearGradient y2="122.765" x2="144.774" y1="118.203" x1="144.774" gradientUnits="userSpaceOnUse" id="t"><stop offset="0" stop-color="#fff"/><stop offset="1" stop-color="#fff" stop-opacity="0"/></linearGradient><circle r="2.282" cy="120.485" cx="144.774" fill="url(#t)"/><linearGradient y2="142.435" x2="122.03" y1="136.152" x1="122.03" gradientUnits="userSpaceOnUse" id="u"><stop offset="0" stop-color="#fff"/><stop offset="1" stop-color="#fff" stop-opacity="0"/></linearGradient><circle r="3.142" cy="139.293" cx="122.03" fill="url(#u)"/><linearGradient y2="148.337" x2="123.382" y1="144.757" x1="123.382" gradientUnits="userSpaceOnUse" id="v"><stop offset="0" stop-color="#fff"/><stop offset="1" stop-color="#fff" stop-opacity="0"/></linearGradient><circle r="1.789" cy="146.548" cx="123.382" fill="url(#v)"/><linearGradient y2="155.482" x2="122.077" y1="151.903" x1="122.077" gradientUnits="userSpaceOnUse" id="w"><stop offset="0" stop-color="#fff"/><stop offset="1" stop-color="#fff" stop-opacity="0"/></linearGradient><circle r="1.79" cy="153.693" cx="122.077" fill="url(#w)"/><linearGradient y2="162.858" x2="119.127" y1="159.28" x1="119.127" gradientUnits="userSpaceOnUse" id="x"><stop offset="0" stop-color="#fff"/><stop offset="1" stop-color="#fff" stop-opacity="0"/></linearGradient><circle r="1.79" cy="161.068" cx="119.127" fill="url(#x)"/><linearGradient y2="168.267" x2="121.585" y1="164.688" x1="121.585" gradientUnits="userSpaceOnUse" id="y"><stop offset="0" stop-color="#fff"/><stop offset="1" stop-color="#fff" stop-opacity="0"/></linearGradient><circle r="1.79" cy="166.478" cx="121.584" fill="url(#y)"/><linearGradient y2="174.66" x2="125.273" y1="171.081" x1="125.273" gradientUnits="userSpaceOnUse" id="z"><stop offset="0" stop-color="#fff"/><stop offset="1" stop-color="#fff" stop-opacity="0"/></linearGradient><circle r="1.789" cy="172.871" cx="125.273" fill="url(#z)"/><linearGradient y2="181.543" x2="122.568" y1="177.965" x1="122.568" gradientUnits="userSpaceOnUse" id="A"><stop offset="0" stop-color="#fff"/><stop offset="1" stop-color="#fff" stop-opacity="0"/></linearGradient><circle r="1.789" cy="179.755" cx="122.568" fill="url(#A)"/><linearGradient y2="187.255" x2="125.15" y1="184.793" x1="125.15" gradientUnits="userSpaceOnUse" id="B"><stop offset="0" stop-color="#fff"/><stop offset="1" stop-color="#fff" stop-opacity="0"/></linearGradient><circle r="1.23" cy="186.023" cx="125.15" fill="url(#B)"/><linearGradient y2="205.939" x2="132.458" y1="202.359" x1="132.458" gradientUnits="userSpaceOnUse" id="C"><stop offset="0" stop-color="#fff"/><stop offset="1" stop-color="#fff" stop-opacity="0"/></linearGradient><circle r="1.789" cy="204.149" cx="132.458" fill="url(#C)"/><linearGradient y2="134.477" x2="112.864" y1="124.848" x1="112.864" gradientUnits="userSpaceOnUse" id="D"><stop offset="0" stop-color="#fff"/><stop offset="1" stop-color="#fff" stop-opacity="0"/></linearGradient><circle r="4.813" cy="129.663" cx="112.864" fill="url(#D)"/></g></g><g opacity=".8"><g transform="translate(-.1)"><linearGradient y2="29.724" x2="268.283" y1="6.92" x1="268.283" gradientUnits="userSpaceOnUse" id="E"><stop offset="0" stop-color="#fff"/><stop offset="1" stop-color="#fff" stop-opacity="0"/></linearGradient><circle r="11.4" cy="18.322" cx="268.283" fill="url(#E)"/><linearGradient y2="53.821" x2="257.377" y1="39.795" x1="257.377" gradientUnits="userSpaceOnUse" id="F"><stop offset="0" stop-color="#fff"/><stop offset="1" stop-color="#fff" stop-opacity="0"/></linearGradient><circle r="7.014" cy="46.808" cx="257.376" fill="url(#F)"/><linearGradient y2="83.835" x2="271.214" y1="69.809" x1="271.214" gradientUnits="userSpaceOnUse" id="G"><stop offset="0" stop-color="#fff"/><stop offset="1" stop-color="#fff" stop-opacity="0"/></linearGradient><circle r="7.014" cy="76.822" cx="271.214" fill="url(#G)"/><linearGradient y2="103.994" x2="258.484" y1="93.679" x1="258.484" gradientUnits="userSpaceOnUse" id="H"><stop offset="0" stop-color="#fff"/><stop offset="1" stop-color="#fff" stop-opacity="0"/></linearGradient><circle r="5.156" cy="98.836" cx="258.484" fill="url(#H)"/><linearGradient y2="24.31" x2="245.593" y1="15.683" x1="245.593" gradientUnits="userSpaceOnUse" id="I"><stop offset="0" stop-color="#fff"/><stop offset="1" stop-color="#fff" stop-opacity="0"/></linearGradient><circle r="4.312" cy="19.997" cx="245.593" fill="url(#I)"/><linearGradient y2="32.413" x2="247.45" y1="27.499" x1="247.45" gradientUnits="userSpaceOnUse" id="J"><stop offset="0" stop-color="#fff"/><stop offset="1" stop-color="#fff" stop-opacity="0"/></linearGradient><circle r="2.456" cy="29.955" cx="247.45" fill="url(#J)"/><linearGradient y2="42.221" x2="245.659" y1="37.307" x1="245.659" gradientUnits="userSpaceOnUse" id="K"><stop offset="0" stop-color="#fff"/><stop offset="1" stop-color="#fff" stop-opacity="0"/></linearGradient><circle r="2.458" cy="39.764" cx="245.659" fill="url(#K)"/><linearGradient y2="52.347" x2="241.608" y1="47.434" x1="241.608" gradientUnits="userSpaceOnUse" id="L"><stop offset="0" stop-color="#fff"/><stop offset="1" stop-color="#fff" stop-opacity="0"/></linearGradient><circle r="2.456" cy="49.889" cx="241.608" fill="url(#L)"/><linearGradient y2="59.773" x2="244.983" y1="54.861" x1="244.983" gradientUnits="userSpaceOnUse" id="M"><stop offset="0" stop-color="#fff"/><stop offset="1" stop-color="#fff" stop-opacity="0"/></linearGradient><circle r="2.456" cy="57.317" cx="244.983" fill="url(#M)"/><linearGradient y2="68.549" x2="250.045" y1="63.636" x1="250.045" gradientUnits="userSpaceOnUse" id="N"><stop offset="0" stop-color="#fff"/><stop offset="1" stop-color="#fff" stop-opacity="0"/></linearGradient><path d="M252.501 66.093a2.455 2.455 0 11-4.912 0 2.456 2.456 0 114.912 0z" fill="url(#N)"/><linearGradient y2="78.002" x2="246.333" y1="73.089" x1="246.333" gradientUnits="userSpaceOnUse" id="O"><stop offset="0" stop-color="#fff"/><stop offset="1" stop-color="#fff" stop-opacity="0"/></linearGradient><circle r="2.457" cy="75.544" cx="246.333" fill="url(#O)"/><linearGradient y2="85.842" x2="249.876" y1="82.462" x1="249.876" gradientUnits="userSpaceOnUse" id="P"><stop offset="0" stop-color="#fff"/><stop offset="1" stop-color="#fff" stop-opacity="0"/></linearGradient><circle r="1.689" cy="84.152" cx="249.876" fill="url(#P)"/><linearGradient y2="111.492" x2="259.913" y1="106.578" x1="259.913" gradientUnits="userSpaceOnUse" id="Q"><stop offset="0" stop-color="#fff"/><stop offset="1" stop-color="#fff" stop-opacity="0"/></linearGradient><circle r="2.456" cy="109.035" cx="259.913" fill="url(#Q)"/><linearGradient y2="17.33" x2="229.839" y1="2.207" x1="229.839" gradientUnits="userSpaceOnUse" id="R"><stop offset="0" stop-color="#fff"/><stop offset="1" stop-color="#fff" stop-opacity="0"/></linearGradient><circle r="7.561" cy="9.768" cx="229.839" fill="url(#R)"/></g><g transform="translate(-.1)"><linearGradient y2="146.378" x2="265.933" y1="129.769" x1="265.933" gradientUnits="userSpaceOnUse" id="S"><stop offset="0" stop-color="#fff"/><stop offset="1" stop-color="#fff" stop-opacity="0"/></linearGradient><circle r="8.305" cy="138.074" cx="265.933" fill="url(#S)"/><linearGradient y2="163.931" x2="257.987" y1="153.714" x1="257.987" gradientUnits="userSpaceOnUse" id="T"><stop offset="0" stop-color="#fff"/><stop offset="1" stop-color="#fff" stop-opacity="0"/></linearGradient><circle r="5.108" cy="158.824" cx="257.987" fill="url(#T)"/><linearGradient y2="185.794" x2="268.068" y1="175.577" x1="268.068" gradientUnits="userSpaceOnUse" id="U"><stop offset="0" stop-color="#fff"/><stop offset="1" stop-color="#fff" stop-opacity="0"/></linearGradient><circle r="5.109" cy="180.685" cx="268.068" fill="url(#U)"/><linearGradient y2="200.476" x2="258.794" y1="192.963" x1="258.794" gradientUnits="userSpaceOnUse" id="V"><stop offset="0" stop-color="#fff"/><stop offset="1" stop-color="#fff" stop-opacity="0"/></linearGradient><circle r="3.756" cy="196.721" cx="258.794" fill="url(#V)"/><linearGradient y2="122.819" x2="228.881" y1="116.536" x1="228.881" gradientUnits="userSpaceOnUse" id="W"><stop offset="0" stop-color="#fff"/><stop offset="1" stop-color="#fff" stop-opacity="0"/></linearGradient><circle r="3.142" cy="119.677" cx="228.881" fill="url(#W)"/><linearGradient y2="122.765" x2="272.149" y1="118.203" x1="272.149" gradientUnits="userSpaceOnUse" id="X"><stop offset="0" stop-color="#fff"/><stop offset="1" stop-color="#fff" stop-opacity="0"/></linearGradient><circle r="2.282" cy="120.485" cx="272.149" fill="url(#X)"/><linearGradient y2="142.435" x2="249.405" y1="136.152" x1="249.405" gradientUnits="userSpaceOnUse" id="Y"><stop offset="0" stop-color="#fff"/><stop offset="1" stop-color="#fff" stop-opacity="0"/></linearGradient><circle r="3.142" cy="139.293" cx="249.405" fill="url(#Y)"/><linearGradient y2="148.337" x2="250.757" y1="144.757" x1="250.757" gradientUnits="userSpaceOnUse" id="Z"><stop offset="0" stop-color="#fff"/><stop offset="1" stop-color="#fff" stop-opacity="0"/></linearGradient><circle r="1.789" cy="146.548" cx="250.757" fill="url(#Z)"/><linearGradient y2="155.482" x2="249.452" y1="151.903" x1="249.452" gradientUnits="userSpaceOnUse" id="aa"><stop offset="0" stop-color="#fff"/><stop offset="1" stop-color="#fff" stop-opacity="0"/></linearGradient><circle r="1.79" cy="153.693" cx="249.452" fill="url(#aa)"/><linearGradient y2="162.858" x2="246.502" y1="159.28" x1="246.502" gradientUnits="userSpaceOnUse" id="ab"><stop offset="0" stop-color="#fff"/><stop offset="1" stop-color="#fff" stop-opacity="0"/></linearGradient><circle r="1.79" cy="161.068" cx="246.502" fill="url(#ab)"/><linearGradient y2="168.267" x2="248.959" y1="164.688" x1="248.959" gradientUnits="userSpaceOnUse" id="ac"><stop offset="0" stop-color="#fff"/><stop offset="1" stop-color="#fff" stop-opacity="0"/></linearGradient><circle r="1.79" cy="166.478" cx="248.959" fill="url(#ac)"/><linearGradient y2="174.66" x2="252.648" y1="171.081" x1="252.648" gradientUnits="userSpaceOnUse" id="ad"><stop offset="0" stop-color="#fff"/><stop offset="1" stop-color="#fff" stop-opacity="0"/></linearGradient><circle r="1.789" cy="172.871" cx="252.648" fill="url(#ad)"/><linearGradient y2="181.543" x2="249.943" y1="177.965" x1="249.943" gradientUnits="userSpaceOnUse" id="ae"><stop offset="0" stop-color="#fff"/><stop offset="1" stop-color="#fff" stop-opacity="0"/></linearGradient><circle r="1.789" cy="179.755" cx="249.943" fill="url(#ae)"/><linearGradient y2="187.255" x2="252.525" y1="184.793" x1="252.525" gradientUnits="userSpaceOnUse" id="af"><stop offset="0" stop-color="#fff"/><stop offset="1" stop-color="#fff" stop-opacity="0"/></linearGradient><circle r="1.23" cy="186.023" cx="252.525" fill="url(#af)"/><linearGradient y2="205.939" x2="259.834" y1="202.359" x1="259.834" gradientUnits="userSpaceOnUse" id="ag"><stop offset="0" stop-color="#fff"/><stop offset="1" stop-color="#fff" stop-opacity="0"/></linearGradient><circle r="1.789" cy="204.149" cx="259.833" fill="url(#ag)"/><linearGradient y2="134.477" x2="240.239" y1="124.848" x1="240.239" gradientUnits="userSpaceOnUse" id="ah"><stop offset="0" stop-color="#fff"/><stop offset="1" stop-color="#fff" stop-opacity="0"/></linearGradient><circle r="4.813" cy="129.663" cx="240.239" fill="url(#ah)"/></g></g><g opacity=".8"><g transform="translate(-.1)"><linearGradient y2="81.261" x2="330.384" y1="10.387" x1="330.384" gradientUnits="userSpaceOnUse" id="ai"><stop offset="0" stop-color="#fff"/><stop offset="1" stop-color="#fff" stop-opacity="0"/></linearGradient><path d="M295.436 39.999c-3.217 19.302 9.82 37.558 29.119 40.774 19.303 3.218 37.559-9.821 40.777-29.124 3.217-19.3-9.824-37.557-29.126-40.774-19.299-3.217-37.553 9.824-40.77 29.124z" fill="url(#ai)"/><linearGradient y2="121.937" x2="290.436" y1="86.088" x1="290.436" gradientUnits="userSpaceOnUse" id="aj"><stop offset="0" stop-color="#fff"/><stop offset="1" stop-color="#fff" stop-opacity="0"/></linearGradient><path d="M272.76 101.067c-1.628 9.762 4.967 18.996 14.731 20.624 9.759 1.626 18.993-4.969 20.62-14.73 1.628-9.765-4.969-18.999-14.727-20.625-9.764-1.628-18.997 4.967-20.624 14.731z" fill="url(#aj)"/><linearGradient y2="162.023" x2="299.985" y1="139.972" x1="299.985" gradientUnits="userSpaceOnUse" id="ak"><stop offset="0" stop-color="#fff"/><stop offset="1" stop-color="#fff" stop-opacity="0"/></linearGradient><path d="M289.11 149.185c-1.002 6.006 3.059 11.685 9.062 12.686 6.006 1.002 11.686-3.055 12.688-9.061 1.001-6.006-3.057-11.686-9.064-12.687-6.002-1-11.685 3.056-12.686 9.062z" fill="url(#ak)"/><linearGradient y2="204.981" x2="270.774" y1="182.931" x1="270.774" gradientUnits="userSpaceOnUse" id="al"><stop offset="0" stop-color="#fff"/><stop offset="1" stop-color="#fff" stop-opacity="0"/></linearGradient><circle r="11.024" cy="193.957" cx="270.773" fill="url(#al)"/><linearGradient y2="239.484" x2="284.821" y1="223.27" x1="284.821" gradientUnits="userSpaceOnUse" id="am"><stop offset="0" stop-color="#fff"/><stop offset="1" stop-color="#fff" stop-opacity="0"/></linearGradient><circle r="8.106" cy="231.378" cx="284.821" fill="url(#am)"/><linearGradient y2="57.223" x2="391.14" y1="28.803" x1="391.14" gradientUnits="userSpaceOnUse" id="an"><stop offset="0" stop-color="#fff"/><stop offset="1" stop-color="#fff" stop-opacity="0"/></linearGradient><circle r="14.208" cy="43.013" cx="391.14" fill="url(#an)"/><linearGradient y2="84.782" x2="375.828" y1="71.219" x1="375.828" gradientUnits="userSpaceOnUse" id="ao"><stop offset="0" stop-color="#fff"/><stop offset="1" stop-color="#fff" stop-opacity="0"/></linearGradient><circle r="6.779" cy="78.001" cx="375.828" fill="url(#ao)"/><linearGradient y2="69.288" x2="283.447" y1="59.443" x1="283.447" gradientUnits="userSpaceOnUse" id="ap"><stop offset="0" stop-color="#fff"/><stop offset="1" stop-color="#fff" stop-opacity="0"/></linearGradient><circle r="4.922" cy="64.366" cx="283.446" fill="url(#ap)"/><linearGradient y2="119.253" x2="325.182" y1="105.691" x1="325.182" gradientUnits="userSpaceOnUse" id="aq"><stop offset="0" stop-color="#fff"/><stop offset="1" stop-color="#fff" stop-opacity="0"/></linearGradient><circle r="6.78" cy="112.473" cx="325.182" fill="url(#aq)"/><linearGradient y2="131.296" x2="319.73" y1="123.571" x1="319.73" gradientUnits="userSpaceOnUse" id="ar"><stop offset="0" stop-color="#fff"/><stop offset="1" stop-color="#fff" stop-opacity="0"/></linearGradient><circle r="3.862" cy="127.434" cx="319.73" fill="url(#ar)"/><linearGradient y2="146.967" x2="319.974" y1="139.243" x1="319.974" gradientUnits="userSpaceOnUse" id="as"><stop offset="0" stop-color="#fff"/><stop offset="1" stop-color="#fff" stop-opacity="0"/></linearGradient><circle r="3.863" cy="143.105" cx="319.975" fill="url(#as)"/><linearGradient y2="163.714" x2="323.638" y1="155.99" x1="323.638" gradientUnits="userSpaceOnUse" id="at"><stop offset="0" stop-color="#fff"/><stop offset="1" stop-color="#fff" stop-opacity="0"/></linearGradient><circle r="3.861" cy="159.852" cx="323.638" fill="url(#at)"/><linearGradient y2="174.356" x2="316.484" y1="166.631" x1="316.484" gradientUnits="userSpaceOnUse" id="au"><stop offset="0" stop-color="#fff"/><stop offset="1" stop-color="#fff" stop-opacity="0"/></linearGradient><circle r="3.861" cy="170.493" cx="316.484" fill="url(#au)"/><linearGradient y2="186.654" x2="306.366" y1="178.93" x1="306.366" gradientUnits="userSpaceOnUse" id="av"><stop offset="0" stop-color="#fff"/><stop offset="1" stop-color="#fff" stop-opacity="0"/></linearGradient><circle r="3.861" cy="182.793" cx="306.366" fill="url(#av)"/><linearGradient y2="202.268" x2="309.679" y1="194.545" x1="309.679" gradientUnits="userSpaceOnUse" id="aw"><stop offset="0" stop-color="#fff"/><stop offset="1" stop-color="#fff" stop-opacity="0"/></linearGradient><circle r="3.861" cy="198.406" cx="309.68" fill="url(#aw)"/><linearGradient y2="213.491" x2="301.96" y1="208.18" x1="301.96" gradientUnits="userSpaceOnUse" id="ax"><stop offset="0" stop-color="#fff"/><stop offset="1" stop-color="#fff" stop-opacity="0"/></linearGradient><circle r="2.654" cy="210.834" cx="301.96" fill="url(#ax)"/><linearGradient y2="250.683" x2="279.972" y1="242.959" x1="279.972" gradientUnits="userSpaceOnUse" id="ay"><stop offset="0" stop-color="#fff"/><stop offset="1" stop-color="#fff" stop-opacity="0"/></linearGradient><circle r="3.862" cy="246.82" cx="279.972" fill="url(#ay)"/></g><g transform="translate(-.1)"><linearGradient y2="59.017" x2="59.808" y1="3.333" x1="59.808" gradientUnits="userSpaceOnUse" id="az"><stop offset="0" stop-color="#fff"/><stop offset="1" stop-color="#fff" stop-opacity="0"/></linearGradient><circle r="27.841" cy="31.175" cx="59.808" fill="url(#az)"/><linearGradient y2="95.52" x2="83.253" y1="67.355" x1="83.253" gradientUnits="userSpaceOnUse" id="aA"><stop offset="0" stop-color="#fff"/><stop offset="1" stop-color="#fff" stop-opacity="0"/></linearGradient><circle r="14.082" cy="81.438" cx="83.253" fill="url(#aA)"/><linearGradient y2="125.284" x2="69.781" y1="107.959" x1="69.781" gradientUnits="userSpaceOnUse" id="aB"><stop offset="0" stop-color="#fff"/><stop offset="1" stop-color="#fff" stop-opacity="0"/></linearGradient><path d="M78.444 116.622a8.663 8.663 0 11-17.327-.001 8.663 8.663 0 0117.327.001z" fill="url(#aB)"/><linearGradient y2="162.355" x2="86.871" y1="145.031" x1="86.871" gradientUnits="userSpaceOnUse" id="aC"><stop offset="0" stop-color="#fff"/><stop offset="1" stop-color="#fff" stop-opacity="0"/></linearGradient><circle r="8.662" cy="153.693" cx="86.871" fill="url(#aC)"/><linearGradient y2="187.252" x2="71.149" y1="174.513" x1="71.149" gradientUnits="userSpaceOnUse" id="aD"><stop offset="0" stop-color="#fff"/><stop offset="1" stop-color="#fff" stop-opacity="0"/></linearGradient><circle r="6.369" cy="180.884" cx="71.149" fill="url(#aD)"/><linearGradient y2="32.31" x2="13.078" y1="9.982" x1="13.078" gradientUnits="userSpaceOnUse" id="aE"><stop offset="0" stop-color="#fff"/><stop offset="1" stop-color="#fff" stop-opacity="0"/></linearGradient><circle r="11.164" cy="21.146" cx="13.078" fill="url(#aE)"/><linearGradient y2="55.57" x2="20.426" y1="44.916" x1="20.426" gradientUnits="userSpaceOnUse" id="aF"><stop offset="0" stop-color="#fff"/><stop offset="1" stop-color="#fff" stop-opacity="0"/></linearGradient><circle r="5.328" cy="50.244" cx="20.426" fill="url(#aF)"/><linearGradient y2="55.479" x2="93.793" y1="47.744" x1="93.793" gradientUnits="userSpaceOnUse" id="aG"><stop offset="0" stop-color="#fff"/><stop offset="1" stop-color="#fff" stop-opacity="0"/></linearGradient><circle r="3.867" cy="51.611" cx="93.792" fill="url(#aG)"/><linearGradient y2="88.834" x2="55.228" y1="78.179" x1="55.228" gradientUnits="userSpaceOnUse" id="aH"><stop offset="0" stop-color="#fff"/><stop offset="1" stop-color="#fff" stop-opacity="0"/></linearGradient><circle r="5.328" cy="83.506" cx="55.228" fill="url(#aH)"/><linearGradient y2="98.841" x2="57.52" y1="92.772" x1="57.52" gradientUnits="userSpaceOnUse" id="aI"><stop offset="0" stop-color="#fff"/><stop offset="1" stop-color="#fff" stop-opacity="0"/></linearGradient><circle r="3.035" cy="95.806" cx="57.52" fill="url(#aI)"/><linearGradient y2="110.957" x2="55.306" y1="104.887" x1="55.306" gradientUnits="userSpaceOnUse" id="aJ"><stop offset="0" stop-color="#fff"/><stop offset="1" stop-color="#fff" stop-opacity="0"/></linearGradient><path d="M58.34 107.921a3.035 3.035 0 01-6.068 0 3.035 3.035 0 016.068 0z" fill="url(#aJ)"/><linearGradient y2="123.462" x2="50.304" y1="117.395" x1="50.304" gradientUnits="userSpaceOnUse" id="aK"><stop offset="0" stop-color="#fff"/><stop offset="1" stop-color="#fff" stop-opacity="0"/></linearGradient><circle r="3.035" cy="120.428" cx="50.304" fill="url(#aK)"/><linearGradient y2="132.635" x2="54.472" y1="126.567" x1="54.472" gradientUnits="userSpaceOnUse" id="aL"><stop offset="0" stop-color="#fff"/><stop offset="1" stop-color="#fff" stop-opacity="0"/></linearGradient><circle r="3.034" cy="129.601" cx="54.472" fill="url(#aL)"/><linearGradient y2="143.475" x2="60.727" y1="137.407" x1="60.727" gradientUnits="userSpaceOnUse" id="aM"><stop offset="0" stop-color="#fff"/><stop offset="1" stop-color="#fff" stop-opacity="0"/></linearGradient><circle r="3.034" cy="140.442" cx="60.727" fill="url(#aM)"/><linearGradient y2="155.149" x2="56.14" y1="149.082" x1="56.14" gradientUnits="userSpaceOnUse" id="aN"><stop offset="0" stop-color="#fff"/><stop offset="1" stop-color="#fff" stop-opacity="0"/></linearGradient><circle r="3.035" cy="152.115" cx="56.14" fill="url(#aN)"/><linearGradient y2="164.833" x2="60.517" y1="160.66" x1="60.517" gradientUnits="userSpaceOnUse" id="aO"><stop offset="0" stop-color="#fff"/><stop offset="1" stop-color="#fff" stop-opacity="0"/></linearGradient><circle r="2.086" cy="162.746" cx="60.517" fill="url(#aO)"/><linearGradient y2="196.514" x2="72.911" y1="190.446" x1="72.911" gradientUnits="userSpaceOnUse" id="aP"><stop offset="0" stop-color="#fff"/><stop offset="1" stop-color="#fff" stop-opacity="0"/></linearGradient><circle r="3.034" cy="193.48" cx="72.911" fill="url(#aP)"/></g><g transform="translate(-.1)"><linearGradient y2="92.892" x2="194.108" y1="47.81" x1="194.108" gradientUnits="userSpaceOnUse" id="aQ"><stop offset="0" stop-color="#fff"/><stop offset="1" stop-color="#fff" stop-opacity="0"/></linearGradient><circle r="22.541" cy="70.35" cx="194.108" fill="url(#aQ)"/><linearGradient y2="122.447" x2="213.088" y1="99.643" x1="213.088" gradientUnits="userSpaceOnUse" id="aR"><stop offset="0" stop-color="#fff"/><stop offset="1" stop-color="#fff" stop-opacity="0"/></linearGradient><circle r="11.401" cy="111.044" cx="213.088" fill="url(#aR)"/><linearGradient y2="146.543" x2="202.182" y1="132.518" x1="202.182" gradientUnits="userSpaceOnUse" id="aS"><stop offset="0" stop-color="#fff"/><stop offset="1" stop-color="#fff" stop-opacity="0"/></linearGradient><circle r="7.014" cy="139.531" cx="202.182" fill="url(#aS)"/><linearGradient y2="176.558" x2="216.019" y1="162.532" x1="216.019" gradientUnits="userSpaceOnUse" id="aT"><stop offset="0" stop-color="#fff"/><stop offset="1" stop-color="#fff" stop-opacity="0"/></linearGradient><circle r="7.014" cy="169.544" cx="216.019" fill="url(#aT)"/><linearGradient y2="196.716" x2="203.29" y1="186.402" x1="203.29" gradientUnits="userSpaceOnUse" id="aU"><stop offset="0" stop-color="#fff"/><stop offset="1" stop-color="#fff" stop-opacity="0"/></linearGradient><path d="M208.446 191.559a5.156 5.156 0 11-10.312 0 5.155 5.155 0 1110.312 0z" fill="url(#aU)"/><linearGradient y2="71.269" x2="156.274" y1="53.193" x1="156.274" gradientUnits="userSpaceOnUse" id="aV"><stop offset="0" stop-color="#fff"/><stop offset="1" stop-color="#fff" stop-opacity="0"/></linearGradient><circle r="9.038" cy="62.231" cx="156.274" fill="url(#aV)"/><linearGradient y2="90.102" x2="162.224" y1="81.476" x1="162.224" gradientUnits="userSpaceOnUse" id="aW"><stop offset="0" stop-color="#fff"/><stop offset="1" stop-color="#fff" stop-opacity="0"/></linearGradient><circle r="4.313" cy="85.789" cx="162.224" fill="url(#aW)"/><linearGradient y2="90.027" x2="221.623" y1="83.765" x1="221.623" gradientUnits="userSpaceOnUse" id="aX"><stop offset="0" stop-color="#fff"/><stop offset="1" stop-color="#fff" stop-opacity="0"/></linearGradient><circle r="3.131" cy="86.895" cx="221.623" fill="url(#aX)"/><linearGradient y2="117.033" x2="190.399" y1="108.406" x1="190.399" gradientUnits="userSpaceOnUse" id="aY"><stop offset="0" stop-color="#fff"/><stop offset="1" stop-color="#fff" stop-opacity="0"/></linearGradient><circle r="4.312" cy="112.719" cx="190.399" fill="url(#aY)"/><linearGradient y2="125.135" x2="192.255" y1="120.221" x1="192.255" gradientUnits="userSpaceOnUse" id="aZ"><stop offset="0" stop-color="#fff"/><stop offset="1" stop-color="#fff" stop-opacity="0"/></linearGradient><circle r="2.457" cy="122.677" cx="192.255" fill="url(#aZ)"/><linearGradient y2="134.944" x2="190.463" y1="130.03" x1="190.463" gradientUnits="userSpaceOnUse" id="ba"><stop offset="0" stop-color="#fff"/><stop offset="1" stop-color="#fff" stop-opacity="0"/></linearGradient><circle r="2.458" cy="132.487" cx="190.463" fill="url(#ba)"/><linearGradient y2="145.07" x2="186.413" y1="140.157" x1="186.413" gradientUnits="userSpaceOnUse" id="bb"><stop offset="0" stop-color="#fff"/><stop offset="1" stop-color="#fff" stop-opacity="0"/></linearGradient><circle r="2.457" cy="142.612" cx="186.413" fill="url(#bb)"/><linearGradient y2="152.496" x2="189.788" y1="147.583" x1="189.788" gradientUnits="userSpaceOnUse" id="bc"><stop offset="0" stop-color="#fff"/><stop offset="1" stop-color="#fff" stop-opacity="0"/></linearGradient><circle r="2.457" cy="150.04" cx="189.788" fill="url(#bc)"/><linearGradient y2="161.272" x2="194.851" y1="156.359" x1="194.851" gradientUnits="userSpaceOnUse" id="bd"><stop offset="0" stop-color="#fff"/><stop offset="1" stop-color="#fff" stop-opacity="0"/></linearGradient><circle r="2.457" cy="158.816" cx="194.851" fill="url(#bd)"/><linearGradient y2="170.724" x2="191.139" y1="165.812" x1="191.139" gradientUnits="userSpaceOnUse" id="be"><stop offset="0" stop-color="#fff"/><stop offset="1" stop-color="#fff" stop-opacity="0"/></linearGradient><circle r="2.457" cy="168.267" cx="191.139" fill="url(#be)"/><linearGradient y2="178.565" x2="194.682" y1="175.185" x1="194.682" gradientUnits="userSpaceOnUse" id="bf"><stop offset="0" stop-color="#fff"/><stop offset="1" stop-color="#fff" stop-opacity="0"/></linearGradient><circle r="1.69" cy="176.875" cx="194.682" fill="url(#bf)"/><linearGradient y2="204.214" x2="204.718" y1="199.3" x1="204.718" gradientUnits="userSpaceOnUse" id="bg"><stop offset="0" stop-color="#fff"/><stop offset="1" stop-color="#fff" stop-opacity="0"/></linearGradient><circle r="2.457" cy="201.757" cx="204.718" fill="url(#bg)"/><linearGradient y2="110.052" x2="174.645" y1="94.929" x1="174.645" gradientUnits="userSpaceOnUse" id="bh"><stop offset="0" stop-color="#fff"/><stop offset="1" stop-color="#fff" stop-opacity="0"/></linearGradient><circle r="7.561" cy="102.491" cx="174.645" fill="url(#bh)"/></g><g transform="translate(-.1)"><linearGradient y2="239.101" x2="210.738" y1="222.492" x1="210.738" gradientUnits="userSpaceOnUse" id="bi"><stop offset="0" stop-color="#fff"/><stop offset="1" stop-color="#fff" stop-opacity="0"/></linearGradient><circle r="8.304" cy="230.796" cx="210.738" fill="url(#bi)"/><linearGradient y2="256.654" x2="202.792" y1="246.437" x1="202.792" gradientUnits="userSpaceOnUse" id="bj"><stop offset="0" stop-color="#fff"/><stop offset="1" stop-color="#fff" stop-opacity="0"/></linearGradient><circle r="5.108" cy="251.546" cx="202.792" fill="url(#bj)"/><linearGradient y2="278.518" x2="212.873" y1="268.299" x1="212.873" gradientUnits="userSpaceOnUse" id="bk"><stop offset="0" stop-color="#fff"/><stop offset="1" stop-color="#fff" stop-opacity="0"/></linearGradient><circle r="5.109" cy="273.408" cx="212.873" fill="url(#bk)"/><linearGradient y2="293.199" x2="203.6" y1="285.685" x1="203.6" gradientUnits="userSpaceOnUse" id="bl"><stop offset="0" stop-color="#fff"/><stop offset="1" stop-color="#fff" stop-opacity="0"/></linearGradient><circle r="3.756" cy="289.443" cx="203.6" fill="url(#bl)"/><linearGradient y2="215.542" x2="173.686" y1="209.258" x1="173.686" gradientUnits="userSpaceOnUse" id="bm"><stop offset="0" stop-color="#fff"/><stop offset="1" stop-color="#fff" stop-opacity="0"/></linearGradient><circle r="3.142" cy="212.4" cx="173.687" fill="url(#bm)"/><linearGradient y2="215.488" x2="216.954" y1="210.925" x1="216.954" gradientUnits="userSpaceOnUse" id="bn"><stop offset="0" stop-color="#fff"/><stop offset="1" stop-color="#fff" stop-opacity="0"/></linearGradient><circle r="2.282" cy="213.208" cx="216.954" fill="url(#bn)"/><linearGradient y2="235.158" x2="194.21" y1="228.875" x1="194.21" gradientUnits="userSpaceOnUse" id="bo"><stop offset="0" stop-color="#fff"/><stop offset="1" stop-color="#fff" stop-opacity="0"/></linearGradient><circle r="3.141" cy="232.016" cx="194.21" fill="url(#bo)"/><linearGradient y2="241.06" x2="195.563" y1="237.48" x1="195.563" gradientUnits="userSpaceOnUse" id="bp"><stop offset="0" stop-color="#fff"/><stop offset="1" stop-color="#fff" stop-opacity="0"/></linearGradient><circle r="1.789" cy="239.271" cx="195.562" fill="url(#bp)"/><linearGradient y2="248.205" x2="194.257" y1="244.625" x1="194.257" gradientUnits="userSpaceOnUse" id="bq"><stop offset="0" stop-color="#fff"/><stop offset="1" stop-color="#fff" stop-opacity="0"/></linearGradient><circle r="1.79" cy="246.416" cx="194.257" fill="url(#bq)"/><linearGradient y2="255.581" x2="191.307" y1="252.002" x1="191.307" gradientUnits="userSpaceOnUse" id="br"><stop offset="0" stop-color="#fff"/><stop offset="1" stop-color="#fff" stop-opacity="0"/></linearGradient><circle r="1.79" cy="253.791" cx="191.307" fill="url(#br)"/><linearGradient y2="260.99" x2="193.765" y1="257.411" x1="193.765" gradientUnits="userSpaceOnUse" id="bs"><stop offset="0" stop-color="#fff"/><stop offset="1" stop-color="#fff" stop-opacity="0"/></linearGradient><circle r="1.79" cy="259.201" cx="193.765" fill="url(#bs)"/><linearGradient y2="267.382" x2="197.453" y1="263.803" x1="197.453" gradientUnits="userSpaceOnUse" id="bt"><stop offset="0" stop-color="#fff"/><stop offset="1" stop-color="#fff" stop-opacity="0"/></linearGradient><circle r="1.79" cy="265.593" cx="197.453" fill="url(#bt)"/><linearGradient y2="274.266" x2="194.749" y1="270.688" x1="194.749" gradientUnits="userSpaceOnUse" id="bu"><stop offset="0" stop-color="#fff"/><stop offset="1" stop-color="#fff" stop-opacity="0"/></linearGradient><circle r="1.789" cy="272.478" cx="194.749" fill="url(#bu)"/><linearGradient y2="279.979" x2="197.331" y1="277.516" x1="197.331" gradientUnits="userSpaceOnUse" id="bv"><stop offset="0" stop-color="#fff"/><stop offset="1" stop-color="#fff" stop-opacity="0"/></linearGradient><circle r="1.23" cy="278.746" cx="197.331" fill="url(#bv)"/><linearGradient y2="298.662" x2="204.639" y1="295.082" x1="204.639" gradientUnits="userSpaceOnUse" id="bw"><stop offset="0" stop-color="#fff"/><stop offset="1" stop-color="#fff" stop-opacity="0"/></linearGradient><path d="M206.428 296.871a1.79 1.79 0 01-1.788 1.791 1.791 1.791 0 010-3.58 1.79 1.79 0 011.788 1.789z" fill="url(#bw)"/><linearGradient y2="227.2" x2="185.044" y1="217.571" x1="185.044" gradientUnits="userSpaceOnUse" id="bx"><stop offset="0" stop-color="#fff"/><stop offset="1" stop-color="#fff" stop-opacity="0"/></linearGradient><circle r="4.814" cy="222.385" cx="185.044" fill="url(#bx)"/></g></g></svg>