<svg xmlns="http://www.w3.org/2000/svg" viewBox="0 0 407.333 304" height="304" width="407.333"><g fill="#00f"><g opacity=".8"><g transform="translate(-.1)"><circle r="11.4" cy="18.322" cx="140.908"/><circle r="7.014" cy="46.808" cx="130.001"/><circle r="7.014" cy="76.822" cx="143.839"/><circle r="5.156" cy="98.836" cx="131.109"/><circle r="4.312" cy="19.997" cx="118.218"/><circle r="2.456" cy="29.955" cx="120.075"/><circle r="2.458" cy="39.764" cx="118.284"/><circle r="2.456" cy="49.889" cx="114.233"/><circle r="2.456" cy="57.317" cx="117.608"/><path d="M125.126 66.093a2.455 2.455 0 11-4.912 0 2.456 2.456 0 114.912 0z"/><circle r="2.457" cy="75.544" cx="118.958"/><circle r="1.689" cy="84.152" cx="122.501"/><circle r="2.456" cy="109.035" cx="132.538"/><circle r="7.561" cy="9.768" cx="102.464"/></g><g transform="translate(-.1)"><circle r="8.305" cy="138.074" cx="138.558"/><circle r="5.108" cy="158.824" cx="130.612"/><circle r="5.109" cy="180.685" cx="140.693"/><circle r="3.756" cy="196.721" cx="131.419"/><circle r="3.142" cy="119.677" cx="101.506"/><circle r="2.282" cy="120.485" cx="144.774"/><circle r="3.142" cy="139.293" cx="122.03"/><circle r="1.789" cy="146.548" cx="123.382"/><circle r="1.79" cy="153.693" cx="122.077"/><circle r="1.79" cy="161.068" cx="119.127"/><circle r="1.79" cy="166.478" cx="121.584"/><circle r="1.789" cy="172.871" cx="125.273"/><circle r="1.789" cy="179.755" cx="122.568"/><circle r="1.23" cy="186.023" cx="125.15"/><circle r="1.789" cy="204.149" cx="132.458"/><circle r="4.813" cy="129.663" cx="112.864"/></g></g><g opacity=".8"><g transform="translate(-.1)"><circle r="11.4" cy="18.322" cx="268.283"/><circle r="7.014" cy="46.808" cx="257.376"/><circle r="7.014" cy="76.822" cx="271.214"/><circle r="5.156" cy="98.836" cx="258.484"/><circle r="4.312" cy="19.997" cx="245.593"/><circle r="2.456" cy="29.955" cx="247.45"/><circle r="2.458" cy="39.764" cx="245.659"/><circle r="2.456" cy="49.889" cx="241.608"/><circle r="2.456" cy="57.317" cx="244.983"/><path d="M252.501 66.093a2.455 2.455 0 11-4.912 0 2.456 2.456 0 114.912 0z"/><circle r="2.457" cy="75.544" cx="246.333"/><circle r="1.689" cy="84.152" cx="249.876"/><circle r="2.456" cy="109.035" cx="259.913"/><circle r="7.561" cy="9.768" cx="229.839"/></g><g transform="translate(-.1)"><circle r="8.305" cy="138.074" cx="265.933"/><circle r="5.108" cy="158.824" cx="257.987"/><circle r="5.109" cy="180.685" cx="268.068"/><circle r="3.756" cy="196.721" cx="258.794"/><circle r="3.142" cy="119.677" cx="228.881"/><circle r="2.282" cy="120.485" cx="272.149"/><circle r="3.142" cy="139.293" cx="249.405"/><circle r="1.789" cy="146.548" cx="250.757"/><circle r="1.79" cy="153.693" cx="249.452"/><circle r="1.79" cy="161.068" cx="246.502"/><circle r="1.79" cy="166.478" cx="248.959"/><circle r="1.789" cy="172.871" cx="252.648"/><circle r="1.789" cy="179.755" cx="249.943"/><circle r="1.23" cy="186.023" cx="252.525"/><circle r="1.789" cy="204.149" cx="259.833"/><circle r="4.813" cy="129.663" cx="240.239"/></g></g><g opacity=".8"><g transform="translate(-.1)"><path d="M295.436 39.999c-3.217 19.302 9.82 37.558 29.119 40.774 19.303 3.218 37.559-9.821 40.777-29.124 3.217-19.3-9.824-37.557-29.126-40.774-19.299-3.217-37.553 9.824-40.77 29.124zM272.76 101.067c-1.628 9.762 4.967 18.996 14.731 20.624 9.759 1.626 18.993-4.969 20.62-14.73 1.628-9.765-4.969-18.999-14.727-20.625-9.764-1.628-18.997 4.967-20.624 14.731zM289.11 149.185c-1.002 6.006 3.059 11.685 9.062 12.686 6.006 1.002 11.686-3.055 12.688-9.061 1.001-6.006-3.057-11.686-9.064-12.687-6.002-1-11.685 3.056-12.686 9.062z"/><circle r="11.024" cy="193.957" cx="270.773"/><circle r="8.106" cy="231.378" cx="284.821"/><circle r="14.208" cy="43.013" cx="391.14"/><circle r="6.779" cy="78.001" cx="375.828"/><circle r="4.922" cy="64.366" cx="283.446"/><circle r="6.78" cy="112.473" cx="325.182"/><circle r="3.862" cy="127.434" cx="319.73"/><circle r="3.863" cy="143.105" cx="319.975"/><circle r="3.861" cy="159.852" cx="323.638"/><circle r="3.861" cy="170.493" cx="316.484"/><circle r="3.861" cy="182.793" cx="306.366"/><circle r="3.861" cy="198.406" cx="309.68"/><circle r="2.654" cy="210.834" cx="301.96"/><circle r="3.862" cy="246.82" cx="279.972"/></g><g transform="translate(-.1)"><circle r="27.841" cy="31.175" cx="59.808"/><circle r="14.082" cy="81.438" cx="83.253"/><path d="M78.444 116.622a8.663 8.663 0 11-17.327-.001 8.663 8.663 0 0117.327.001z"/><circle r="8.662" cy="153.693" cx="86.871"/><circle r="6.369" cy="180.884" cx="71.149"/><circle r="11.164" cy="21.146" cx="13.078"/><circle r="5.328" cy="50.244" cx="20.426"/><circle r="3.867" cy="51.611" cx="93.792"/><circle r="5.328" cy="83.506" cx="55.228"/><circle r="3.035" cy="95.806" cx="57.52"/><path d="M58.34 107.921a3.035 3.035 0 01-6.068 0 3.035 3.035 0 016.068 0z"/><circle r="3.035" cy="120.428" cx="50.304"/><circle r="3.034" cy="129.601" cx="54.472"/><circle r="3.034" cy="140.442" cx="60.727"/><circle r="3.035" cy="152.115" cx="56.14"/><circle r="2.086" cy="162.746" cx="60.517"/><circle r="3.034" cy="193.48" cx="72.911"/></g><g transform="translate(-.1)"><circle r="22.541" cy="70.35" cx="194.108"/><circle r="11.401" cy="111.044" cx="213.088"/><circle r="7.014" cy="139.531" cx="202.182"/><circle r="7.014" cy="169.544" cx="216.019"/><path d="M208.446 191.559a5.156 5.156 0 11-10.312 0 5.155 5.155 0 1110.312 0z"/><circle r="9.038" cy="62.231" cx="156.274"/><circle r="4.313" cy="85.789" cx="162.224"/><circle r="3.131" cy="86.895" cx="221.623"/><circle r="4.312" cy="112.719" cx="190.399"/><circle r="2.457" cy="122.677" cx="192.255"/><circle r="2.458" cy="132.487" cx="190.463"/><circle r="2.457" cy="142.612" cx="186.413"/><circle r="2.457" cy="150.04" cx="189.788"/><circle r="2.457" cy="158.816" cx="194.851"/><circle r="2.457" cy="168.267" cx="191.139"/><circle r="1.69" cy="176.875" cx="194.682"/><circle r="2.457" cy="201.757" cx="204.718"/><circle r="7.561" cy="102.491" cx="174.645"/></g><g transform="translate(-.1)"><circle r="8.304" cy="230.796" cx="210.738"/><circle r="5.108" cy="251.546" cx="202.792"/><circle r="5.109" cy="273.408" cx="212.873"/><circle r="3.756" cy="289.443" cx="203.6"/><circle r="3.142" cy="212.4" cx="173.687"/><circle r="2.282" cy="213.208" cx="216.954"/><circle r="3.141" cy="232.016" cx="194.21"/><circle r="1.789" cy="239.271" cx="195.562"/><circle r="1.79" cy="246.416" cx="194.257"/><circle r="1.79" cy="253.791" cx="191.307"/><circle r="1.79" cy="259.201" cx="193.765"/><circle r="1.79" cy="265.593" cx="197.453"/><circle r="1.789" cy="272.478" cx="194.749"/><circle r="1.23" cy="278.746" cx="197.331"/><path d="M206.428 296.871a1.79 1.79 0 01-1.788 1.791 1.791 1.791 0 010-3.58 1.79 1.79 0 011.788 1.789z"/><circle r="4.814" cy="222.385" cx="185.044"/></g></g></g></svg>