<?xml version="1.0" encoding="UTF-8" standalone="no"?>
<!-- Generator: Adobe Illustrator 14.0.0, SVG Export Plug-In . SVG Version: 6.00 Build 43363)  -->

<svg
   xmlns:dc="http://purl.org/dc/elements/1.1/"
   xmlns:cc="http://creativecommons.org/ns#"
   xmlns:rdf="http://www.w3.org/1999/02/22-rdf-syntax-ns#"
   xmlns:svg="http://www.w3.org/2000/svg"
   xmlns="http://www.w3.org/2000/svg"
   xmlns:sodipodi="http://sodipodi.sourceforge.net/DTD/sodipodi-0.dtd"
   xmlns:inkscape="http://www.inkscape.org/namespaces/inkscape"
   version="1.1"
   id="svg3125"
   sodipodi:docname="forum_logo.svg"
   inkscape:version="0.92.4 5da689c313, 2019-01-14"
   x="0px"
   y="0px"
   width="334.99997"
   height="35.066662"
   viewBox="0 0 334.99997 35.066662"
   enable-background="new 0 0 552 63"
   xml:space="preserve"><metadata
   id="metadata12"><rdf:RDF><cc:Work
       rdf:about=""><dc:format>image/svg+xml</dc:format><dc:type
         rdf:resource="http://purl.org/dc/dcmitype/StillImage" /><dc:title></dc:title></cc:Work></rdf:RDF></metadata><defs
   id="defs10" />
<sodipodi:namedview
   id="namedview3077"
   pagecolor="#ffffff"
   inkscape:pageshadow="2"
   inkscape:cx="122.31945"
   bordercolor="#666666"
   inkscape:window-x="0"
   showgrid="false"
   gridtolerance="10"
   showguides="true"
   inkscape:cy="35.227805"
   inkscape:current-layer="svg3125"
   inkscape:window-y="0"
   borderopacity="1"
   inkscape:zoom="1.5942721"
   inkscape:guide-bbox="true"
   guidetolerance="10"
   inkscape:window-width="1920"
   inkscape:pageopacity="0"
   objecttolerance="10"
   inkscape:window-height="1057"
   inkscape:window-maximized="1"
   fit-margin-top="0"
   fit-margin-left="0"
   fit-margin-right="0"
   fit-margin-bottom="0">
	<sodipodi:guide
   id="guide3079"
   position="180.28083,18.054833"
   orientation="0,1"
   inkscape:locked="false" />
</sodipodi:namedview>
<g
   id="g3133"
   transform="matrix(1.0015898,0,0,-1.0015898,-2.0001748,34.41166)">
	<g
   id="g3919"
   transform="translate(98.338,18.118339)">
		<path
   id="path3921"
   inkscape:connector-curvature="0"
   d="m 1.997,-0.653 c 0,11.654 7.745,16.152 16.375,16.152 H 34.084 V 6.943 H 22.061 c -4.132,0 -6.492,-1.4 -6.492,-7.669 0,-6.124 2.433,-7.233 6.564,-7.233 h 11.951 v -8.555 H 18.297 c -8.852,0 -16.3,4.206 -16.3,15.861 m -24.641,-2.804 c -2.139,0 -3.248,-0.739 -3.248,-2.804 0,-2.065 1.183,-2.73 3.248,-2.73 h 7.303 v 5.534 z m 3.098,10.843 h -15.713 v 8.113 h 19.622 c 8.631,0 12.837,-5.013 12.837,-14.455 v -17.559 h -24.861 c -6.565,0 -10.919,2.582 -10.919,9.59 0,7.156 4.503,9.662 10.919,9.662 h 12.32 c -0.148,3.1 -1.183,4.649 -4.205,4.649 M -96.341,0.598 c 0,10.036 4.575,14.978 14.68,14.901 h 23.751 c 10.034,0 14.608,-4.865 14.608,-14.901 v -17.112 h -12.983 v 16.228 c 0,4.944 -0.886,6.788 -4.648,6.788 h -3.246 V -16.514 H -75.392 V 6.502 h -3.246 c -3.836,0 -4.72,-1.844 -4.72,-6.788 v -16.228 h -12.983 z"
   style="fill:#ff5600" />
	</g>
	<g
   id="g3923"
   transform="translate(294.5499,21.713039)">
		<path
   id="path3925"
   inkscape:connector-curvature="0"
   d="m 1.996,-0.653 c -2.472,0 -4.464,-2.021 -4.464,-4.513 0,-2.504 1.992,-4.528 4.464,-4.528 2.473,0 4.481,2.024 4.481,4.528 0,2.492 -2.008,4.513 -4.481,4.513 M 19.763,-13.65 c -4.936,-3.783 -9.938,-8.717 -17.022,-8.717 -10.315,0 -18.68,7.73 -18.68,17.267 0,9.536 8.365,17.271 18.68,17.271 6.678,0 11.431,-4.236 15.847,-8.126 1.748,-1.562 6.278,-4.967 9.26,-1.397 2.979,3.556 5.566,6.883 6.421,7.893 1.515,1.782 3.097,2.751 5.663,-1.392 2.589,-4.19 0.77,-5.581 -0.763,-6.973 -1.531,-1.394 -3.158,-2.378 -4.359,-3.706 -3.532,-3.922 -1.718,-9.127 0.611,-11.015 2.484,-1.993 2.948,-2.305 5.643,-4.054 1.791,-1.156 0.55,-2.96 -1.809,-4.606 -2.381,-1.665 -6.572,0.187 -8.087,1.628 -1.556,1.482 -2.289,2.223 -4.081,4.12 -1.773,1.887 -5.538,3.176 -7.324,1.807 m -93.56,10.653 c 0,10.036 4.573,14.978 14.678,14.902 h 23.755 c 10.033,0 14.603,-4.866 14.603,-14.902 v -17.114 h -12.98 v 16.23 c 0,4.944 -0.885,6.789 -4.647,6.789 h -3.246 V -20.111 H -52.85 V 2.908 h -3.241 c -3.837,0 -4.722,-1.845 -4.722,-6.789 v -16.23 h -12.984 z m -22.652,8.341 c -3.32,0 -5.238,-1.257 -5.752,-6.348 h 11.208 c -0.293,4.795 -1.843,6.348 -5.456,6.348 m 0.738,-17.341 h 14.235 v -8.114 h -16.67 c -10.254,0 -17.411,4.501 -17.411,16.157 0,11.656 7.082,16.598 18.813,16.598 12.317,0 17.85,-5.534 17.85,-15.788 v -3.613 h -12.027 -11.135 c 0.59,-4.278 2.655,-5.24 6.345,-5.24 m -60.419,23.902 h 21.099 c 10.106,0 14.681,-4.866 14.681,-14.902 v -17.114 h -12.986 v 16.23 c 0,4.944 -1.034,6.789 -4.72,6.789 h -5.088 v -23.019 h -12.985 v 32.016 z"
   style="fill:#ffa700" />
	</g>
</g>
</svg>