<?xml version="1.0" encoding="utf-8"?>
<!-- Generator: Adobe Illustrator 14.0.0, SVG Export Plug-In . SVG Version: 6.00 Build 43363)  -->
<!DOCTYPE svg PUBLIC "-//W3C//DTD SVG 1.1//EN" "http://www.w3.org/Graphics/SVG/1.1/DTD/svg11.dtd">
<svg version="1.1" id="Ebene_1" xmlns="http://www.w3.org/2000/svg" xmlns:xlink="http://www.w3.org/1999/xlink" x="0px" y="0px"
	 width="141.732px" height="141.732px" viewBox="0 0 141.732 141.732" enable-background="new 0 0 141.732 141.732"
	 xml:space="preserve">
<polygon fill="#713D17" stroke="#713D17" stroke-linecap="round" stroke-linejoin="round" points="5.936,94.309 90.018,62.878 
	134.464,61.617 44.705,94.213 "/>
<g>
	<g>
		<path fill="#FDE3B7" d="M26.5,39.237c-0.022,0.949-0.185,1.991-0.207,3.003c-0.037,1.71,0.869,1.24,1.85,2.077
			c0.671,0.572,1.194,1.591,2.057,1.86c0.85,0.269,2.223,0.14,3.129,0.059c0.334-0.029,1.141-0.168,1.373-0.491
			c0.294-0.414,0.099-1.055-0.037-1.521c-0.234-0.814-0.655-1.829-1.228-2.457c-0.888-0.978-2.393-1.356-3.181-2.41
			c-0.378-0.513-0.59-1.1-0.994-1.604c-0.351-0.438-0.979-0.711-1.2-1.128c-1.036,1.004-1.541,1.787-1.573,3.363"/>
		<path fill="#FFF3B8" d="M29.862,47.835c0.023-1.816,0.047-3.635,0.07-5.454c0.01-0.777,0.001-1.516,0.154-2.26
			c0.2-0.947,0.719-1.596,1.3-2.19c1.271-1.294,2.612-1.238,4.194-1.675c0.859-0.236,1.432-0.41,2.364-0.403
			c0.355,0.004,0.831-0.084,1.176,0c0.93,0.227,1.548,1.53,2.187,2.259c0.486,0.557,0.598,0.866,0.918,1.523
			c0.364,0.754,0.93,0.881,1.361,1.406c0.13,0.169,0.171,0.663,0.256,0.861c0.163,0.392,0.466,0.708,0.607,1.105
			c0.192,0.552,0.185,1.187,0.127,1.786c-0.152,1.67-0.112,3.511-2.055,3.506c-0.996-0.005-1.72-0.363-2.542-0.915
			c-0.934-0.637-2.018-0.979-3.246-1.006c-1.315-0.037-2.631-0.01-3.95-0.026c-0.986-0.011-1.483,0.312-2.207,0.974
			c-0.371,0.338-0.629,0.498-1.058,0.692"/>
		<path fill="#FACA8A" d="M35.959,45.285c0.977,0.549,2.431,1.892,3.021,2.907c0.319,0.549,0.365,0.693,0.353,1.343
			c-0.021,0.96,0.069,1.979-0.067,2.921c-0.646,0.038-1.381,0.824-1.837,1.197c-0.662,0.547-1.438,1.073-1.971,1.748
			c-0.448,0.565-1.052,1.175-1.327,1.821c-0.29,0.672-0.368,1.658-0.535,2.388c-0.161,0.696-0.327,1.643-0.209,2.392
			c0.133,0.855,0.814,1.27,1.028,2.019c0.537,1.881-2.114,1.454-3.271,1.454c-0.787-0.006-1.418-0.193-2.116-0.377
			c-0.799-0.211-1.846-0.188-2.572-0.652c-1.539-0.99-0.937-3.429-1.539-4.847c-0.346-0.818-1.215-1.477-1.394-2.4
			c-0.037-0.173,0.079-0.437,0.023-0.603c-0.029-0.091-0.287-0.419-0.285-0.409c-0.097-0.389-0.065-0.812-0.063-1.246
			c0.001-0.529,0.15-0.604,0.282-0.945c0.296-0.746,0.547-1.571,0.843-2.351c0.372-0.988,0.605-1.921,0.765-2.96
			c0.081-0.519,0.025-1.273,0.314-1.726c0.289-0.441,0.902-0.589,1.354-0.773c0.477-0.189,0.758-0.457,1.211-0.741
			c1.067-0.664,2.309-0.791,3.498-0.915c0.776-0.08,1.386-0.219,2.178,0.002c0.455,0.133,1.148,0.206,1.557,0.415
			c0.264,0.139,0.487,0.531,0.75,0.707"/>
		<path fill="#FFFCED" d="M35.769,68.282c0.047,1.021,1.276,1.789,1.711,1.904c0.163,0.049,0.729,0.141,0.883-0.033
			c0.234-0.275,0.336-1.143,0.55-1.527c0.538-0.958,1.259-1.904,1.938-2.467c1.064-0.878,1.893,0.43,2.945,0.51
			c0.014,0.427,0.049,0.897,0.171,1.292c0.177,0.569,0.752,0.955,0.869,1.501c0.129,0.631-0.029,1.752-0.008,2.431
			c0.473,0.177,1.103-0.217,1.62-0.106c0.25,0.051,0.919,0.736,1.106,0.352c0.092-0.186,0.028-0.405,0.073-0.578
			c-0.003,0.006,0.171-0.496,0.159-0.412c0.056-0.334,0.104-0.716,0.155-1.086c0.134-0.958,0.275-1.404,0.582-2.242
			c0.188-0.504,0.394-1.141,0.515-1.706c0.139-0.628,0.186-0.733,0.425-1.255c0.387-0.849,0.725-1.753,1.138-2.628
			c0.924-1.957,0.929-4.821,1.542-6.955c0.583-2.03,0.926-4.464,1.113-6.854c0.102-1.299-0.219-2.597-0.487-3.675
			c-0.185-0.745-0.319-1.745-0.571-2.347c-0.489-1.147-1.815-1.691-2.521-1.858c-0.423-0.104-0.853-0.076-1.254-0.377
			c-0.568-0.429-1.135-0.909-1.826-0.963c-0.612-0.043-1.23,0.015-1.84-0.01c-0.76-0.021-1.545,0.59-2.232,1.197
			c-0.777,0.686-1.616,1.38-2.338,2.261c-0.787,0.958-1.181,2.234-1.733,3.622c-0.3,0.756-0.709,1.14-1.072,1.771
			c-0.207,0.362-0.385,0.855-0.63,1.2c-0.818,1.137-1.628,2.064-2.414,3.241c-0.525,0.789-1.068,1.871-1.325,2.997
			c-0.294,1.302-0.297,3.17-0.127,4.51c0.124,0.971,0.3,1.814,0.622,2.592c0.241,0.575,0.474,1.082,0.673,1.736
			c0.406,1.326,0.709,2.635,1.409,3.397"/>
		<path fill="#FCE2BC" d="M32.477,75.531c0.782,0.27,0.383,0.86,0.861,1.283c0.207,0.186,0.845,0.077,1.121,0.181
			c0.359,0.143,0.694,0.45,1.03,0.628c0.531,0.281,1.215,0.642,1.808,0.54c0.737-0.128,1.412-1.222,1.832-1.791
			c0.394-0.535,0.829-1.19,0.963-1.924c0.157-0.852,0.012-1.915,0.026-2.784c0.036-1.797-0.455-3.845-1.109-5.482
			c-0.708-1.771-2.357-1.723-3.971-1.498c-1.133,0.157-2.386-0.063-3.443,0.481c-1.237,0.642-1.646,0.937-2.224,2.245
			c-0.587,1.335-0.518,3.548,0.107,4.855c0.326,0.687,1.069,1.13,1.667,1.608c0.234,0.188,0.46,0.334,0.644,0.608
			c0.239,0.354-0.098,0.747,0.522,0.859"/>
		<path fill="#EEBA00" d="M39.531,65.984c1.129-0.346,1.546-0.592,2.754-0.344c0.428,0.087,0.585,0.124,0.962,0.31
			c0.784,0.385,2.124,1.026,2.693,1.778c0.489,0.646,0.513,1.626,0.664,2.437c0.167,0.877,0.751,2.082,0.355,2.973
			c-0.333,0.762-1.408,1.159-1.85,1.915c-0.493,0.844-0.856,1.79-1.43,2.483c-0.497,0.604-0.879,0.701-1.607,0.69
			c-0.651-0.007-1.96,0.281-2.538-0.002c-0.516-0.259-0.543-1.197-0.771-1.723c-0.34-0.779-0.753-0.979-0.075-1.535
			c1.31-1.064,3.382-0.961,3.64-3.138c0.121-1.023-0.242-1.322-0.919-1.828c-0.452-0.34-0.385-0.29-0.908-0.433
			c-0.446-0.129-0.902-0.136-1.357-0.318c-0.918-0.368-2.14-0.991-2.162-2.159c-0.023-1.224,1.805-1.292,2.56-1.44
			c0.163-0.033,0.33-0.072,0.5-0.037"/>
		<path fill="#F5B75C" d="M47.892,57.271c0.48,0.054,1.493-0.688,2.007-0.873c0.676-0.247,1.33-0.251,2.094-0.224
			c0.79,0.023,1.448,0.49,2.101,0.989c0.604,0.462,1.083,0.868,1.743,1.259c0.551,0.324,0.502,0.363,0.837,0.94
			c0.891,1.507,0.761,3.314,0.909,5.123c0.049,0.593,0.129,1.7-0.063,2.262c-0.266,0.778-1.103,0.924-1.636,1.349
			c-0.615,0.489-1.049,1.09-1.698,1.58c-0.614,0.479-1.176,1.073-1.745,1.548c-1.478,1.234-2.064-1.414-3.527-1.543
			c-0.252-0.026-0.541,0.189-0.76,0.326c-0.218,0.146-0.512,0.581-0.726,0.665c-0.559,0.211-0.211-0.066-0.542-0.384
			c-0.158-0.148-0.1-0.271-0.33-0.435c-0.217-0.141-0.744-0.071-0.995-0.189c-1.046-0.479-2.214-1.983-2.346-3.215
			c-0.13-1.224,0.104-1.881,0.717-2.815c0.695-1.057,0.573-2.076,0.72-3.392c0.129-1.191,0.423-1.431,1.374-1.808
			c0.328-0.124,1.066-0.248,1.326-0.401c0.245-0.148,0.214-0.375,0.444-0.541c0.141-0.096,0.435-0.131,0.604-0.22"/>
		<path fill="#FFE8AC" d="M43.963,47.839c0.523,0.32,0.103,2.755,0.374,3.469c0.108,0.289,0.409,0.507,0.502,0.701
			c0.258,0.527,0.377,1.265,0.576,1.848c0.23,0.687,0.239,1.404,0.994,1.348c0.7-0.058,0.699-0.581,0.842-1.143
			c0.306-1.181,0.661-1.537,1.711-1.855c1.096-0.335,2.02-0.729,3.191-0.512c0.074,0.223,0.212,0.223,0.287,0.376
			c0.132,0.278-0.005,0.459,0.054,0.732c0.093,0.435,0.335,0.594,0.509,0.92c0.434,0.803,0.589,1.121,1.501,1.149
			c0.669,0.023,1.193,0.131,1.69-0.408c0.406-0.43,0.979-1.079,1.202-1.635c0.303-0.757,0.188-1.658,0.37-2.457
			c0.184-0.814,0.355-1.464,0.368-2.436c0.013-0.83,0.195-1.651-0.335-2.262c-0.68-0.785-1.985-0.744-2.741-1.381
			c-0.584-0.485-0.41-1.27-0.392-2.02c0.027-1.374-0.75-1.374-1.841-1.701c-1.414-0.431-3.581-0.481-5.049-0.195
			c-1.769,0.344-2.861,2.285-3.255,3.892c-0.205,0.831-0.512,1.551-0.542,2.44c-0.029,0.755-0.021,1.51-0.029,2.26"/>
		<path fill="#EFA000" d="M51.092,44.506c1.064,0.145,3.156,0.354,3.861,1.49c-1.199,0.374-1.194,1.771-1.349,2.851
			c-0.121,0.871-0.692,2.917-1.726,2.782c-0.473-1.405-1.942-0.455-2.864-0.393c-0.237-1.13-0.041-2.21-0.161-3.364
			c-0.111-1.061-1.069-1.887-0.946-2.975c0.53-0.466,0.908-0.408,1.63-0.403c0.445,0.003,1.51-0.184,1.72,0.201"/>
		<path fill="#D78300" d="M52.044,62.384c0.052-0.5-0.506-1.353-0.681-1.855c-0.663-0.055-0.904-1.095-0.767-1.706
			c0.837-0.2,1.103,0.4,1.668,0.871c0.411,0.337,1.083,0.497,1.328,0.995c0.146,0.297,0.068,0.98,0.143,1.322
			c0.04,0.183-0.068,0.402-0.022,0.575c0.053,0.225,0.279,0.293,0.352,0.554c0.125,0.442-0.068,1.074-0.036,1.537
			c0.051,0.771,0.16,1.458,0.148,2.242c-0.003,0.274-0.149,1.1-0.038,1.319c0.226,0.442,0.651,0.049,0.693,0.744
			c0.021,0.323-0.314,0.706-0.518,0.938c-0.469,0.52-1.074,1.649-1.89,1.316c-0.271-0.111-0.501-0.45-0.831-0.579
			c-0.355-0.143-0.605-0.265-0.91-0.526c-0.391-0.339-0.427-0.767-0.878-1.049c-0.317-0.195-0.657-0.113-1.028-0.173
			c-0.044-0.428-0.157-1.416,0.029-1.81c0.299-0.634,1.238-0.828,1.628-1.352c0.245-0.323,0.327-0.529,0.436-0.937
			c0.119-0.436,0.255-0.666,0.4-0.979c0.172-0.378,0.405-1.308,0.604-1.454"/>
		<path fill="#812910" d="M38.483,68.804c0.836,0.003,2.304-0.286,3.019,0.092c0.083,0.043,0.463,0.699,0.515,0.812
			c0.168,0.376,0.146,0.778,0.15,1.181c0.004,0.34,0.047,0.767-0.008,1.088c-0.12,0.698-0.217,0.571-0.697,0.975
			c-0.581,0.49-1.178,0.785-1.668,1.404c-0.312,0.401-0.577,1.488-1.239,1.228c-0.923-0.365,0.069-1.652,0.295-2.045
			c0.662-1.13,0.254-3.617-0.197-4.927"/>
		<path fill="#FFF9C7" d="M31.399,60.322c-0.689,0.251-0.356,0.836-0.786,1.24c-0.186,0.175-0.743,0.068-0.986,0.169
			c-0.318,0.129-0.623,0.43-0.922,0.6c-0.47,0.26-1.081,0.608-1.598,0.502c-0.644-0.134-1.207-1.205-1.562-1.771
			c-0.331-0.527-0.698-1.176-0.799-1.898c-0.115-0.83,0.036-1.87,0.043-2.718c0.014-1.756,0.493-3.755,1.106-5.348
			c0.664-1.727,2.109-1.65,3.518-1.408c0.989,0.164,2.095-0.031,3.008,0.513c1.069,0.638,1.422,0.938,1.897,2.226
			c0.483,1.315,0.369,3.472-0.21,4.747c-0.302,0.659-0.965,1.089-1.496,1.547c-0.213,0.177-0.417,0.316-0.584,0.58
			c-0.217,0.349,0.066,0.732-0.479,0.838"/>
		<path fill="#F4E9A4" d="M25.44,50.903c-0.981-0.354-1.34-0.601-2.403-0.372c-0.38,0.08-0.519,0.11-0.855,0.287
			c-0.696,0.366-1.887,0.98-2.402,1.706c-0.448,0.625-0.49,1.584-0.643,2.371c-0.166,0.857-0.708,2.028-0.381,2.908
			c0.274,0.742,1.207,1.143,1.576,1.89c0.415,0.833,0.709,1.757,1.194,2.449c0.424,0.599,0.758,0.692,1.393,0.694
			c0.569,0,1.712,0.296,2.229,0.023c0.457-0.242,0.503-1.157,0.717-1.666c0.316-0.761,0.682-0.951,0.102-1.504
			c-1.126-1.057-2.944-0.982-3.117-3.109c-0.082-1.007,0.245-1.29,0.85-1.776c0.403-0.321,0.343-0.276,0.807-0.414
			c0.394-0.122,0.794-0.122,1.197-0.298c0.812-0.343,1.898-0.938,1.948-2.076c0.048-1.196-1.554-1.287-2.209-1.443
			c-0.146-0.032-0.288-0.075-0.44-0.042"/>
		<path fill="#812910" d="M26.294,53.664c-0.733-0.002-2.016-0.302-2.648,0.057c-0.074,0.044-0.426,0.68-0.474,0.792
			c-0.157,0.362-0.146,0.761-0.159,1.155c-0.012,0.324-0.058,0.746-0.018,1.062c0.087,0.678,0.175,0.556,0.587,0.96
			c0.497,0.486,1.016,0.781,1.429,1.393c0.264,0.395,0.47,1.455,1.058,1.214c0.821-0.342-0.021-1.619-0.21-1.997
			c-0.551-1.12-0.137-3.537,0.291-4.813"/>
	</g>
	<g>
		<path fill="#FDE3B7" d="M70.239,38.919c-0.024,1.167-0.223,2.442-0.252,3.68c-0.045,2.091,1.061,1.513,2.264,2.544
			c0.82,0.697,1.458,1.942,2.511,2.271c1.046,0.328,2.722,0.171,3.827,0.071c0.41-0.033,1.396-0.206,1.68-0.604
			c0.361-0.504,0.123-1.29-0.043-1.861c-0.286-0.987-0.803-2.232-1.504-3.006c-1.085-1.192-2.924-1.656-3.888-2.943
			c-0.463-0.622-0.724-1.342-1.22-1.969c-0.424-0.535-1.195-0.859-1.466-1.371c-1.264,1.232-1.881,2.182-1.921,4.11"/>
		<path fill="#FFF3B8" d="M74.35,49.44c0.029-2.222,0.059-4.442,0.086-6.671c0.013-0.953,0.002-1.856,0.188-2.762
			c0.247-1.157,0.88-1.957,1.589-2.68c1.555-1.578,3.195-1.512,5.127-2.049c1.057-0.291,1.756-0.495,2.896-0.49
			c0.432,0.005,1.01-0.107,1.436-0.005c1.142,0.28,1.894,1.876,2.674,2.768c0.596,0.681,0.73,1.056,1.124,1.865
			c0.449,0.918,1.137,1.078,1.665,1.725c0.16,0.193,0.209,0.804,0.312,1.051c0.202,0.472,0.57,0.857,0.745,1.349
			c0.234,0.666,0.223,1.45,0.154,2.178c-0.187,2.049-0.135,4.305-2.516,4.293c-1.217-0.009-2.1-0.443-3.104-1.122
			c-1.145-0.779-2.471-1.198-3.972-1.235c-1.606-0.035-3.22-0.005-4.829-0.031c-1.205-0.011-1.812,0.382-2.699,1.193
			c-0.453,0.413-0.771,0.607-1.295,0.857"/>
		<path fill="#FACA8A" d="M81.809,46.319c1.193,0.679,2.971,2.317,3.697,3.558c0.387,0.667,0.443,0.845,0.427,1.645
			c-0.024,1.17,0.089,2.418-0.077,3.573c-0.797,0.049-1.689,1.005-2.252,1.462c-0.811,0.664-1.758,1.313-2.41,2.138
			c-0.549,0.694-1.281,1.438-1.621,2.227c-0.354,0.818-0.449,2.028-0.654,2.92c-0.194,0.855-0.4,2.012-0.259,2.924
			c0.166,1.048,0.998,1.553,1.263,2.472c0.654,2.299-2.586,1.781-4.002,1.774c-0.963,0.007-1.736-0.238-2.586-0.458
			c-0.98-0.262-2.261-0.229-3.147-0.797c-1.883-1.214-1.146-4.196-1.884-5.929c-0.422-1.002-1.485-1.807-1.704-2.934
			c-0.043-0.214,0.096-0.535,0.029-0.741c-0.038-0.109-0.347-0.506-0.345-0.498c-0.121-0.473-0.083-0.992-0.081-1.524
			c0.002-0.646,0.185-0.744,0.348-1.16c0.361-0.907,0.67-1.917,1.03-2.877c0.455-1.198,0.739-2.34,0.934-3.609
			c0.099-0.637,0.031-1.562,0.387-2.11c0.351-0.545,1.103-0.725,1.657-0.948c0.58-0.236,0.926-0.564,1.479-0.91
			c1.305-0.812,2.82-0.972,4.279-1.117c0.947-0.1,1.693-0.272,2.662,0.006c0.558,0.165,1.4,0.248,1.904,0.505
			c0.32,0.167,0.594,0.652,0.919,0.865"/>
		<path fill="#FFFCED" d="M81.577,74.45c0.056,1.245,1.562,2.188,2.09,2.324c0.201,0.059,0.893,0.173,1.081-0.04
			c0.285-0.333,0.411-1.398,0.675-1.865c0.654-1.167,1.536-2.329,2.368-3.018c1.3-1.074,2.316,0.527,3.599,0.623
			c0.025,0.523,0.062,1.1,0.212,1.585c0.216,0.689,0.917,1.159,1.063,1.837c0.16,0.767-0.035,2.135-0.012,2.974
			c0.58,0.205,1.352-0.27,1.982-0.139c0.305,0.065,1.127,0.899,1.352,0.433c0.115-0.231,0.035-0.497,0.092-0.708
			c-0.004,0.01,0.209-0.61,0.193-0.503c0.067-0.406,0.127-0.884,0.188-1.326c0.166-1.178,0.338-1.721,0.716-2.745
			c0.226-0.619,0.474-1.398,0.626-2.09c0.17-0.768,0.229-0.893,0.521-1.532c0.472-1.039,0.889-2.143,1.394-3.213
			c1.129-2.395,1.135-5.889,1.885-8.506c0.712-2.489,1.13-5.462,1.357-8.382c0.128-1.595-0.267-3.176-0.594-4.494
			c-0.226-0.904-0.389-2.135-0.699-2.87c-0.596-1.405-2.22-2.062-3.084-2.274c-0.516-0.131-1.043-0.089-1.535-0.457
			c-0.692-0.532-1.388-1.12-2.232-1.18c-0.748-0.053-1.5,0.014-2.249-0.009c-0.931-0.031-1.888,0.716-2.732,1.46
			c-0.946,0.839-1.974,1.686-2.86,2.761c-0.961,1.172-1.441,2.731-2.116,4.43c-0.366,0.925-0.866,1.402-1.31,2.17
			c-0.258,0.441-0.474,1.05-0.773,1.47c-0.999,1.387-1.99,2.517-2.953,3.961c-0.642,0.963-1.304,2.287-1.619,3.667
			c-0.359,1.583-0.363,3.871-0.155,5.512c0.149,1.189,0.364,2.223,0.761,3.175c0.289,0.705,0.578,1.321,0.823,2.122
			c0.496,1.622,0.868,3.218,1.722,4.156"/>
		<path fill="#FCE2BC" d="M77.55,83.312c0.955,0.332,0.47,1.054,1.055,1.571c0.256,0.223,1.035,0.095,1.371,0.223
			c0.438,0.167,0.846,0.549,1.261,0.769c0.646,0.339,1.483,0.777,2.211,0.654c0.897-0.148,1.724-1.484,2.237-2.183
			c0.48-0.659,1.013-1.458,1.176-2.361c0.191-1.037,0.014-2.338,0.034-3.404c0.045-2.193-0.558-4.702-1.356-6.707
			c-0.867-2.167-2.883-2.1-4.855-1.83c-1.386,0.195-2.916-0.074-4.215,0.588c-1.508,0.785-2.012,1.156-2.715,2.755
			c-0.72,1.632-0.637,4.34,0.131,5.94c0.401,0.832,1.307,1.379,2.037,1.964c0.285,0.224,0.561,0.406,0.785,0.739
			c0.295,0.436-0.115,0.907,0.641,1.049"/>
		<path fill="#EEBA00" d="M86.177,71.643c1.381-0.437,1.894-0.73,3.365-0.43c0.528,0.109,0.721,0.146,1.182,0.379
			c0.955,0.474,2.597,1.264,3.291,2.178c0.602,0.79,0.625,1.987,0.814,2.979c0.203,1.068,0.917,2.539,0.432,3.64
			c-0.408,0.927-1.725,1.416-2.262,2.338c-0.604,1.033-1.051,2.183-1.75,3.039c-0.61,0.742-1.073,0.856-1.965,0.848
			c-0.795-0.012-2.396,0.336-3.106-0.012c-0.628-0.308-0.661-1.456-0.94-2.104c-0.416-0.947-0.92-1.203-0.089-1.877
			c1.601-1.302,4.134-1.172,4.448-3.833c0.147-1.264-0.295-1.623-1.121-2.237c-0.553-0.418-0.471-0.353-1.113-0.533
			c-0.548-0.156-1.103-0.165-1.66-0.387c-1.119-0.456-2.612-1.213-2.642-2.641c-0.029-1.494,2.208-1.585,3.13-1.764
			c0.201-0.037,0.404-0.091,0.609-0.043"/>
		<path fill="#F5B75C" d="M96.401,60.985c0.589,0.061,1.825-0.845,2.455-1.073c0.826-0.305,1.624-0.305,2.558-0.273
			c0.969,0.025,1.772,0.594,2.571,1.211c0.739,0.567,1.322,1.058,2.131,1.538c0.675,0.396,0.614,0.449,1.029,1.146
			c1.082,1.848,0.93,4.055,1.107,6.271c0.06,0.729,0.16,2.078-0.075,2.763c-0.324,0.954-1.353,1.13-2.003,1.649
			c-0.752,0.599-1.283,1.331-2.077,1.94c-0.753,0.58-1.437,1.308-2.136,1.892c-1.803,1.506-2.521-1.73-4.314-1.894
			c-0.303-0.029-0.659,0.236-0.926,0.406c-0.268,0.173-0.626,0.708-0.889,0.804c-0.682,0.258-0.258-0.078-0.664-0.463
			c-0.193-0.188-0.118-0.339-0.402-0.535c-0.266-0.174-0.908-0.087-1.219-0.225c-1.278-0.589-2.705-2.427-2.867-3.937
			c-0.164-1.494,0.127-2.3,0.877-3.443c0.854-1.292,0.699-2.539,0.877-4.143c0.158-1.464,0.52-1.76,1.684-2.212
			c0.402-0.156,1.305-0.303,1.62-0.492c0.303-0.185,0.263-0.464,0.546-0.659c0.171-0.122,0.529-0.158,0.735-0.271"/>
		<path fill="#FFE8AC" d="M91.597,49.45c0.64,0.389,0.126,3.365,0.454,4.237c0.135,0.347,0.504,0.621,0.617,0.851
			c0.312,0.652,0.463,1.555,0.703,2.269c0.283,0.841,0.293,1.723,1.213,1.641c0.861-0.065,0.857-0.703,1.035-1.392
			c0.374-1.447,0.805-1.875,2.088-2.272c1.342-0.412,2.469-0.895,3.904-0.627c0.09,0.277,0.26,0.279,0.352,0.46
			c0.16,0.342-0.006,0.564,0.064,0.907c0.115,0.521,0.411,0.721,0.627,1.12c0.531,0.982,0.719,1.358,1.832,1.398
			c0.817,0.033,1.459,0.159,2.069-0.489c0.494-0.535,1.196-1.324,1.471-2.006c0.371-0.928,0.233-2.029,0.452-3.006
			c0.225-0.991,0.431-1.792,0.445-2.974c0.02-1.015,0.241-2.027-0.406-2.77c-0.833-0.957-2.428-0.907-3.354-1.681
			c-0.714-0.598-0.5-1.561-0.479-2.48c0.034-1.68-0.914-1.675-2.249-2.079c-1.731-0.521-4.381-0.591-6.174-0.237
			c-2.164,0.422-3.498,2.79-3.984,4.76c-0.251,1.017-0.622,1.896-0.663,2.99c-0.033,0.92-0.024,1.84-0.036,2.759"/>
		<path fill="#EFA000" d="M100.316,45.366c1.301,0.177,3.856,0.436,4.718,1.825c-1.467,0.459-1.459,2.166-1.645,3.488
			c-0.151,1.062-0.851,3.563-2.115,3.398c-0.577-1.713-2.371-0.551-3.498-0.478c-0.291-1.387-0.048-2.695-0.193-4.111
			c-0.141-1.297-1.314-2.314-1.161-3.646c0.646-0.562,1.109-0.495,1.991-0.487c0.549,0.003,1.848-0.228,2.107,0.238"/>
		<path fill="#D78300" d="M101.479,67.23c0.064-0.609-0.618-1.649-0.832-2.265c-0.812-0.07-1.107-1.341-0.939-2.087
			c1.025-0.247,1.35,0.486,2.044,1.062c0.499,0.411,1.32,0.605,1.618,1.216c0.183,0.369,0.086,1.201,0.178,1.623
			c0.047,0.227-0.084,0.492-0.032,0.701c0.069,0.273,0.345,0.357,0.435,0.68c0.152,0.531-0.08,1.312-0.041,1.88
			c0.059,0.939,0.195,1.778,0.18,2.738c-0.005,0.34-0.182,1.352-0.045,1.613c0.275,0.545,0.797,0.066,0.85,0.904
			c0.023,0.404-0.386,0.873-0.635,1.153c-0.574,0.638-1.314,2.023-2.311,1.612c-0.333-0.134-0.615-0.554-1.02-0.71
			c-0.437-0.175-0.738-0.32-1.113-0.646c-0.477-0.414-0.518-0.937-1.075-1.282c-0.384-0.239-0.801-0.14-1.255-0.21
			c-0.055-0.522-0.189-1.729,0.037-2.216c0.363-0.774,1.514-1.006,1.989-1.643c0.296-0.403,0.399-0.651,0.534-1.154
			c0.143-0.536,0.313-0.812,0.488-1.2c0.212-0.466,0.494-1.595,0.739-1.771"/>
		<path fill="#812910" d="M84.894,75.082c1.022,0.005,2.819-0.349,3.688,0.114c0.104,0.056,0.569,0.855,0.635,0.994
			c0.205,0.461,0.176,0.952,0.182,1.452c0.006,0.406,0.057,0.93-0.01,1.33c-0.146,0.847-0.262,0.688-0.854,1.187
			c-0.711,0.6-1.439,0.964-2.039,1.717c-0.382,0.488-0.706,1.817-1.514,1.502c-1.133-0.446,0.082-2.02,0.361-2.499
			c0.806-1.387,0.309-4.423-0.24-6.026"/>
		<path fill="#FFF9C7" d="M76.233,64.709c-0.848,0.312-0.438,1.029-0.965,1.518c-0.228,0.224-0.907,0.085-1.205,0.204
			c-0.389,0.165-0.759,0.523-1.126,0.736c-0.575,0.326-1.32,0.745-1.952,0.616c-0.788-0.165-1.479-1.477-1.914-2.166
			c-0.405-0.644-0.852-1.432-0.976-2.315c-0.141-1.021,0.044-2.293,0.052-3.326c0.017-2.145,0.602-4.598,1.353-6.541
			c0.812-2.109,2.577-2.018,4.302-1.729c1.211,0.207,2.562-0.04,3.679,0.63c1.308,0.784,1.739,1.15,2.318,2.721
			c0.595,1.609,0.456,4.253-0.256,5.809c-0.37,0.807-1.181,1.332-1.831,1.89c-0.261,0.223-0.506,0.39-0.711,0.709
			c-0.267,0.429,0.082,0.897-0.588,1.023"/>
		<path fill="#F4E9A4" d="M68.945,53.193c-1.201-0.438-1.643-0.734-2.943-0.455c-0.464,0.102-0.631,0.136-1.043,0.349
			c-0.85,0.451-2.307,1.206-2.939,2.092c-0.545,0.762-0.597,1.935-0.786,2.903c-0.203,1.039-0.864,2.468-0.465,3.549
			c0.334,0.908,1.475,1.399,1.928,2.311c0.505,1.019,0.868,2.152,1.461,2.993c0.516,0.728,0.922,0.854,1.702,0.854
			c0.696-0.002,2.096,0.362,2.725,0.028c0.561-0.294,0.614-1.417,0.879-2.036c0.383-0.926,0.833-1.169,0.121-1.839
			c-1.374-1.295-3.598-1.197-3.812-3.805c-0.098-1.231,0.299-1.579,1.041-2.173c0.496-0.398,0.42-0.338,0.987-0.506
			c0.483-0.145,0.97-0.146,1.463-0.355c0.995-0.435,2.325-1.155,2.381-2.549c0.061-1.457-1.898-1.576-2.701-1.767
			c-0.177-0.039-0.352-0.089-0.534-0.039"/>
		<path fill="#812910" d="M69.986,56.574c-0.895-0.008-2.464-0.376-3.239,0.066c-0.091,0.051-0.518,0.827-0.576,0.963
			c-0.192,0.446-0.179,0.93-0.197,1.415c-0.012,0.399-0.072,0.913-0.02,1.3c0.108,0.832,0.211,0.678,0.718,1.172
			c0.608,0.598,1.24,0.956,1.748,1.706c0.32,0.482,0.575,1.782,1.292,1.485c1.005-0.42-0.024-1.977-0.257-2.443
			c-0.674-1.368-0.167-4.325,0.355-5.892"/>
	</g>
	<g>
		<path fill="#FDE3B7" d="M98.351,25.084c-0.028,1.168-0.226,2.438-0.257,3.678c-0.042,2.092,1.065,1.512,2.266,2.541
			c0.822,0.7,1.459,1.945,2.514,2.279c1.043,0.324,2.723,0.168,3.825,0.068c0.414-0.038,1.397-0.21,1.681-0.603
			c0.363-0.505,0.125-1.29-0.041-1.862c-0.285-0.993-0.803-2.234-1.505-3.01c-1.081-1.19-2.922-1.651-3.887-2.941
			c-0.464-0.622-0.725-1.344-1.219-1.964c-0.427-0.536-1.196-0.864-1.467-1.375c-1.265,1.232-1.884,2.183-1.921,4.108"/>
		<path fill="#FFF3B8" d="M102.464,35.601c0.029-2.222,0.059-4.443,0.086-6.668c0.012-0.956,0-1.857,0.186-2.766
			c0.248-1.156,0.881-1.955,1.592-2.675c1.553-1.583,3.193-1.516,5.125-2.051c1.058-0.291,1.756-0.499,2.896-0.491
			c0.436,0.002,1.013-0.107,1.437-0.001c1.144,0.275,1.892,1.871,2.672,2.76c0.601,0.684,0.732,1.062,1.128,1.87
			c0.447,0.917,1.135,1.076,1.664,1.722c0.161,0.199,0.208,0.801,0.313,1.05c0.199,0.472,0.568,0.861,0.742,1.346
			c0.235,0.674,0.223,1.454,0.158,2.184c-0.189,2.042-0.139,4.299-2.516,4.29c-1.218-0.009-2.101-0.439-3.104-1.119
			c-1.147-0.777-2.472-1.199-3.974-1.239c-1.606-0.036-3.22-0.003-4.831-0.025c-1.205-0.018-1.812,0.379-2.699,1.187
			c-0.453,0.42-0.771,0.613-1.293,0.856"/>
		<path fill="#FACA8A" d="M109.918,32.483c1.197,0.672,2.978,2.317,3.702,3.555c0.387,0.671,0.442,0.846,0.426,1.646
			c-0.024,1.167,0.093,2.415-0.076,3.571c-0.797,0.046-1.689,1.007-2.25,1.465c-0.811,0.666-1.762,1.311-2.414,2.135
			c-0.545,0.688-1.281,1.438-1.62,2.226c-0.354,0.822-0.447,2.029-0.653,2.921c-0.199,0.855-0.402,2.009-0.258,2.924
			c0.165,1.049,0.997,1.555,1.26,2.467c0.656,2.304-2.584,1.785-4.001,1.781c-0.962,0.002-1.737-0.234-2.587-0.463
			c-0.98-0.259-2.262-0.224-3.146-0.796c-1.885-1.21-1.146-4.192-1.883-5.927c-0.424-0.999-1.484-1.811-1.707-2.938
			c-0.042-0.212,0.101-0.53,0.031-0.732c-0.033-0.112-0.35-0.51-0.348-0.496c-0.119-0.479-0.078-1.002-0.078-1.529
			c0.003-0.65,0.186-0.747,0.349-1.161c0.358-0.905,0.667-1.92,1.028-2.871c0.457-1.208,0.738-2.35,0.936-3.617
			c0.097-0.638,0.03-1.558,0.385-2.113c0.351-0.541,1.104-0.721,1.658-0.942c0.579-0.236,0.925-0.564,1.48-0.909
			c1.301-0.812,2.818-0.967,4.277-1.119c0.945-0.098,1.695-0.271,2.662,0.008c0.558,0.156,1.403,0.243,1.906,0.502
			c0.32,0.167,0.592,0.649,0.914,0.863"/>
		<path fill="#FFFCED" d="M109.692,60.613c0.058,1.242,1.561,2.186,2.087,2.324c0.204,0.052,0.893,0.171,1.086-0.043
			c0.28-0.336,0.402-1.394,0.671-1.863c0.655-1.168,1.54-2.332,2.37-3.021c1.302-1.072,2.312,0.53,3.599,0.629
			c0.026,0.52,0.061,1.094,0.21,1.576c0.216,0.696,0.919,1.166,1.061,1.848c0.163,0.759-0.031,2.132-0.009,2.967
			c0.579,0.206,1.351-0.269,1.979-0.138c0.308,0.064,1.128,0.901,1.355,0.434c0.113-0.229,0.034-0.496,0.088-0.708
			c-0.001,0.002,0.213-0.608,0.194-0.509c0.072-0.403,0.128-0.878,0.192-1.324c0.168-1.177,0.337-1.719,0.713-2.745
			c0.227-0.612,0.479-1.395,0.628-2.081c0.167-0.775,0.229-0.899,0.517-1.54c0.474-1.033,0.894-2.143,1.398-3.211
			c1.127-2.393,1.134-5.891,1.88-8.509c0.712-2.485,1.133-5.46,1.363-8.381c0.125-1.584-0.271-3.176-0.597-4.489
			c-0.227-0.91-0.388-2.138-0.701-2.87c-0.596-1.409-2.221-2.066-3.083-2.273c-0.518-0.131-1.04-0.087-1.534-0.464
			c-0.692-0.524-1.387-1.116-2.232-1.178c-0.748-0.051-1.5,0.015-2.246-0.008c-0.934-0.033-1.892,0.719-2.737,1.459
			c-0.944,0.841-1.971,1.686-2.857,2.764c-0.96,1.171-1.446,2.733-2.115,4.428c-0.366,0.924-0.872,1.399-1.314,2.168
			c-0.254,0.449-0.47,1.053-0.77,1.472c-1.002,1.388-1.995,2.518-2.954,3.964c-0.645,0.963-1.307,2.284-1.62,3.666
			c-0.36,1.584-0.364,3.87-0.155,5.51c0.147,1.19,0.366,2.222,0.76,3.179c0.292,0.696,0.58,1.316,0.824,2.119
			c0.496,1.621,0.865,3.221,1.721,4.158"/>
		<path fill="#FCE2BC" d="M105.661,69.47c0.957,0.329,0.47,1.059,1.055,1.569c0.256,0.223,1.034,0.097,1.371,0.227
			c0.438,0.169,0.848,0.55,1.264,0.763c0.646,0.35,1.484,0.782,2.209,0.662c0.9-0.154,1.726-1.489,2.24-2.185
			c0.479-0.654,1.011-1.455,1.176-2.356c0.191-1.04,0.012-2.344,0.031-3.408c0.044-2.19-0.553-4.702-1.354-6.702
			c-0.87-2.172-2.882-2.105-4.858-1.832c-1.385,0.188-2.916-0.079-4.211,0.586c-1.512,0.784-2.014,1.151-2.719,2.75
			c-0.719,1.631-0.634,4.343,0.131,5.941c0.401,0.83,1.309,1.387,2.037,1.967c0.289,0.226,0.562,0.405,0.786,0.736
			c0.292,0.434-0.116,0.915,0.641,1.052"/>
		<path fill="#EEBA00" d="M114.294,57.8c1.378-0.426,1.884-0.727,3.362-0.422c0.528,0.109,0.718,0.147,1.182,0.375
			c0.956,0.473,2.594,1.264,3.289,2.177c0.604,0.791,0.626,1.993,0.816,2.978c0.197,1.07,0.914,2.543,0.431,3.644
			c-0.405,0.925-1.725,1.412-2.265,2.34c-0.603,1.029-1.043,2.184-1.745,3.036c-0.609,0.743-1.075,0.858-1.968,0.846
			c-0.793-0.01-2.397,0.338-3.104-0.006c-0.632-0.311-0.662-1.461-0.942-2.102c-0.417-0.951-0.92-1.205-0.091-1.88
			c1.603-1.305,4.137-1.174,4.45-3.841c0.146-1.253-0.296-1.617-1.121-2.233c-0.553-0.417-0.473-0.349-1.112-0.532
			c-0.55-0.156-1.104-0.164-1.662-0.387c-1.118-0.453-2.616-1.214-2.64-2.633c-0.028-1.505,2.208-1.594,3.131-1.773
			c0.197-0.034,0.398-0.092,0.61-0.039"/>
		<path fill="#F5B75C" d="M124.51,47.141c0.596,0.065,1.827-0.837,2.459-1.068c0.827-0.307,1.625-0.307,2.562-0.275
			c0.963,0.034,1.769,0.603,2.568,1.211c0.737,0.563,1.322,1.064,2.134,1.539c0.67,0.396,0.612,0.447,1.024,1.15
			c1.083,1.848,0.932,4.056,1.108,6.265c0.062,0.731,0.158,2.085-0.074,2.768c-0.326,0.95-1.353,1.131-2.006,1.644
			c-0.751,0.607-1.279,1.338-2.077,1.945c-0.748,0.582-1.433,1.313-2.132,1.892c-1.805,1.501-2.525-1.729-4.312-1.896
			c-0.308-0.027-0.661,0.237-0.932,0.407c-0.269,0.176-0.624,0.709-0.887,0.808c-0.683,0.26-0.26-0.079-0.662-0.464
			c-0.197-0.188-0.123-0.344-0.402-0.53c-0.267-0.181-0.912-0.093-1.225-0.232c-1.275-0.589-2.701-2.428-2.86-3.935
			c-0.162-1.499,0.122-2.301,0.877-3.446c0.85-1.291,0.699-2.533,0.874-4.145c0.161-1.461,0.518-1.753,1.681-2.202
			c0.407-0.165,1.306-0.312,1.627-0.502c0.297-0.174,0.261-0.455,0.54-0.651c0.175-0.122,0.533-0.163,0.74-0.278"/>
		<path fill="#FFE8AC" d="M119.711,35.609c0.64,0.392,0.125,3.366,0.456,4.239c0.135,0.349,0.504,0.618,0.611,0.849
			c0.319,0.653,0.464,1.558,0.707,2.268c0.279,0.841,0.293,1.722,1.211,1.642c0.866-0.066,0.859-0.704,1.039-1.388
			c0.37-1.451,0.802-1.879,2.089-2.278c1.337-0.405,2.47-0.89,3.9-0.622c0.089,0.268,0.259,0.271,0.353,0.457
			c0.159,0.344-0.002,0.56,0.068,0.906c0.111,0.528,0.41,0.725,0.618,1.118c0.534,0.99,0.724,1.368,1.839,1.406
			c0.817,0.026,1.455,0.149,2.068-0.498c0.495-0.531,1.194-1.322,1.47-2c0.373-0.931,0.233-2.03,0.455-3.003
			c0.22-0.992,0.432-1.793,0.447-2.977c0.012-1.017,0.237-2.022-0.409-2.769c-0.836-0.957-2.428-0.911-3.355-1.686
			c-0.714-0.597-0.501-1.557-0.478-2.477c0.031-1.677-0.917-1.675-2.247-2.076c-1.735-0.524-4.387-0.591-6.181-0.239
			c-2.16,0.426-3.496,2.789-3.981,4.76c-0.248,1.017-0.623,1.897-0.664,2.986c-0.033,0.918-0.022,1.844-0.037,2.759"/>
		<path fill="#EFA000" d="M128.427,31.533c1.299,0.172,3.859,0.426,4.722,1.818c-1.468,0.459-1.458,2.163-1.646,3.49
			c-0.149,1.063-0.85,3.559-2.113,3.398c-0.578-1.715-2.376-0.554-3.504-0.479c-0.29-1.381-0.047-2.694-0.193-4.11
			c-0.139-1.298-1.311-2.309-1.16-3.641c0.646-0.568,1.11-0.496,1.992-0.49c0.547,0.003,1.85-0.229,2.109,0.244"/>
		<path fill="#D78300" d="M129.593,53.388c0.065-0.605-0.621-1.647-0.83-2.263c-0.812-0.067-1.109-1.34-0.941-2.084
			c1.027-0.254,1.349,0.48,2.042,1.062c0.502,0.412,1.324,0.605,1.624,1.215c0.181,0.37,0.083,1.197,0.173,1.627
			c0.048,0.218-0.08,0.487-0.028,0.696c0.068,0.275,0.341,0.355,0.435,0.68c0.15,0.538-0.084,1.31-0.044,1.877
			c0.059,0.947,0.194,1.78,0.181,2.748c-0.006,0.328-0.183,1.342-0.047,1.608c0.276,0.544,0.797,0.062,0.849,0.905
			c0.023,0.4-0.384,0.871-0.631,1.147c-0.574,0.643-1.314,2.027-2.312,1.62c-0.333-0.143-0.618-0.559-1.02-0.714
			c-0.436-0.174-0.741-0.324-1.115-0.643c-0.476-0.416-0.519-0.938-1.073-1.283c-0.386-0.238-0.801-0.144-1.255-0.213
			c-0.053-0.528-0.192-1.733,0.034-2.214c0.365-0.776,1.518-1.01,1.989-1.646c0.3-0.4,0.401-0.653,0.536-1.151
			c0.145-0.533,0.314-0.816,0.487-1.196c0.214-0.467,0.498-1.596,0.742-1.782"/>
		<path fill="#812910" d="M113.009,61.241c1.02,0.009,2.818-0.348,3.688,0.12c0.103,0.054,0.571,0.852,0.637,0.991
			c0.201,0.46,0.171,0.949,0.182,1.451c0.003,0.41,0.051,0.93-0.013,1.323c-0.144,0.855-0.262,0.695-0.852,1.193
			c-0.709,0.599-1.441,0.963-2.039,1.723c-0.381,0.478-0.706,1.812-1.517,1.492c-1.133-0.44,0.086-2.016,0.363-2.491
			c0.807-1.39,0.309-4.424-0.243-6.035"/>
		<path fill="#FFF9C7" d="M104.344,50.873c-0.847,0.312-0.438,1.024-0.963,1.521c-0.229,0.213-0.908,0.074-1.207,0.204
			c-0.389,0.157-0.758,0.522-1.125,0.734c-0.576,0.32-1.322,0.742-1.955,0.612c-0.786-0.164-1.475-1.477-1.911-2.165
			c-0.404-0.643-0.854-1.436-0.976-2.316c-0.143-1.023,0.044-2.292,0.05-3.329c0.017-2.143,0.604-4.595,1.353-6.541
			c0.812-2.107,2.582-2.018,4.303-1.73c1.213,0.203,2.562-0.034,3.681,0.637c1.306,0.781,1.737,1.15,2.319,2.719
			c0.59,1.605,0.451,4.248-0.258,5.805c-0.371,0.811-1.178,1.334-1.831,1.894c-0.263,0.218-0.505,0.388-0.708,0.711
			c-0.27,0.424,0.078,0.891-0.59,1.024"/>
		<path fill="#F4E9A4" d="M97.058,39.355c-1.203-0.437-1.643-0.733-2.945-0.458c-0.464,0.101-0.632,0.138-1.042,0.354
			c-0.854,0.454-2.307,1.201-2.938,2.09c-0.545,0.76-0.599,1.931-0.787,2.899c-0.2,1.039-0.866,2.476-0.466,3.549
			c0.332,0.911,1.476,1.399,1.928,2.317c0.505,1.016,0.867,2.146,1.463,2.99c0.516,0.733,0.922,0.854,1.703,0.854
			c0.695-0.004,2.092,0.357,2.723,0.025c0.56-0.292,0.617-1.414,0.879-2.034c0.386-0.929,0.834-1.171,0.123-1.839
			c-1.375-1.297-3.6-1.2-3.814-3.804c-0.098-1.235,0.3-1.584,1.043-2.173c0.494-0.401,0.418-0.337,0.986-0.51
			c0.48-0.146,0.971-0.146,1.464-0.355c0.993-0.433,2.323-1.15,2.379-2.546c0.06-1.459-1.896-1.579-2.7-1.764
			c-0.176-0.045-0.352-0.091-0.535-0.045"/>
		<path fill="#812910" d="M98.099,42.732c-0.896-0.004-2.464-0.37-3.239,0.065c-0.094,0.059-0.521,0.831-0.578,0.966
			c-0.19,0.444-0.179,0.935-0.195,1.42c-0.018,0.393-0.071,0.907-0.022,1.293c0.107,0.836,0.214,0.685,0.72,1.177
			c0.607,0.595,1.238,0.953,1.747,1.704c0.323,0.481,0.573,1.787,1.292,1.485c1.006-0.417-0.025-1.975-0.257-2.45
			c-0.673-1.36-0.168-4.32,0.355-5.881"/>
	</g>
	<g>
		<path fill="#FDE3B7" d="M25.355,50.075c-0.561,0.995-1.319,1.972-1.916,3.023c-1.002,1.771,0.208,1.915,0.759,3.488
			c0.377,1.072,0.343,2.519,1.089,3.401c0.74,0.881,2.244,1.714,3.233,2.261c0.367,0.204,1.289,0.618,1.709,0.447
			c0.543-0.231,0.702-1.045,0.826-1.634c0.213-1.018,0.347-2.386,0.104-3.454c-0.373-1.646-1.729-3.096-1.956-4.769
			c-0.108-0.799,0.005-1.572-0.128-2.39c-0.119-0.707-0.623-1.428-0.619-2.026c-1.647,0.334-2.616,0.798-3.538,2.434"/>
		<path fill="#FFF3B8" d="M24.002,61.497c1.052-1.898,2.101-3.795,3.155-5.694c0.452-0.816,0.857-1.601,1.438-2.275
			c0.744-0.854,1.653-1.183,2.593-1.396c2.057-0.467,3.425,0.531,5.321,1.178c1.037,0.353,1.727,0.579,2.696,1.24
			c0.367,0.249,0.913,0.486,1.224,0.821c0.849,0.893,0.752,2.698,1.007,3.914c0.193,0.931,0.133,1.335,0.098,2.251
			c-0.044,1.05,0.47,1.58,0.623,2.441c0.042,0.262-0.193,0.815-0.219,1.09c-0.048,0.516,0.087,1.065,0.007,1.583
			c-0.103,0.713-0.479,1.384-0.873,1.969c-1.104,1.656-2.104,3.628-4.127,2.252c-1.033-0.697-1.588-1.586-2.13-2.746
			c-0.619-1.32-1.555-2.448-2.818-3.344c-1.351-0.952-2.743-1.85-4.104-2.792c-1.022-0.702-1.72-0.721-2.853-0.526
			c-0.577,0.096-0.941,0.082-1.499-0.011"/>
		<path fill="#FACA8A" d="M31.805,63.092c0.708,1.269,1.469,3.697,1.51,5.186c0.023,0.799-0.012,0.984-0.393,1.66
			c-0.564,0.993-1.042,2.134-1.717,3.034c-0.7-0.417-1.904-0.104-2.596-0.028c-0.997,0.109-2.108,0.117-3.045,0.454
			c-0.787,0.281-1.758,0.5-2.412,0.984c-0.68,0.508-1.318,1.492-1.906,2.143c-0.563,0.621-1.272,1.502-1.571,2.371
			c-0.345,0.994,0.134,1.91-0.066,2.853c-0.506,2.356-3.028,0.047-4.233-0.768c-0.82-0.554-1.374-1.199-1.995-1.881
			c-0.717-0.79-1.821-1.49-2.317-2.494c-1.044-2.12,0.961-4.265,1.135-6.187c0.1-1.102-0.434-2.41-0.098-3.505
			c0.06-0.214,0.328-0.406,0.366-0.62c0.02-0.119-0.066-0.64-0.067-0.63c0.117-0.479,0.389-0.902,0.637-1.355
			c0.302-0.558,0.502-0.535,0.831-0.799c0.728-0.578,1.459-1.27,2.207-1.884c0.946-0.785,1.713-1.601,2.469-2.585
			c0.375-0.487,0.746-1.322,1.305-1.596c0.548-0.267,1.272,0.016,1.848,0.144c0.605,0.13,1.048,0.039,1.682,0.062
			c1.488,0.049,2.855,0.78,4.167,1.488c0.855,0.461,1.574,0.744,2.269,1.535c0.401,0.46,1.084,1.016,1.391,1.532
			c0.195,0.326,0.206,0.898,0.385,1.268"/>
		<path fill="#FFFCED" d="M18.611,87.191c-0.525,1.102,0.322,2.775,0.707,3.202c0.149,0.154,0.683,0.662,0.946,0.584
			c0.395-0.124,0.991-0.963,1.436-1.22c1.096-0.633,2.384-1.124,3.413-1.241c1.606-0.181,1.73,1.782,2.78,2.604
			c-0.219,0.468-0.453,0.976-0.547,1.484c-0.139,0.716,0.245,1.529,0.054,2.195c-0.217,0.749-1.015,1.82-1.38,2.551
			c0.398,0.516,1.276,0.547,1.752,1.022c0.23,0.23,0.545,1.419,0.952,1.147c0.205-0.133,0.259-0.405,0.409-0.563
			c-0.008,0.014,0.456-0.396,0.397-0.316c0.243-0.312,0.511-0.685,0.774-1.035c0.684-0.916,1.081-1.287,1.876-1.956
			c0.478-0.396,1.052-0.925,1.497-1.436c0.5-0.571,0.612-0.643,1.154-1.024c0.882-0.618,1.748-1.335,2.674-1.963
			c2.066-1.42,3.688-4.427,5.537-6.258c1.754-1.729,3.485-4.049,5.031-6.432c0.842-1.299,1.239-2.891,1.57-4.215
			c0.227-0.912,0.654-2.058,0.728-2.869c0.142-1.552-0.94-3.055-1.581-3.729c-0.381-0.41-0.847-0.679-1.094-1.281
			c-0.347-0.852-0.668-1.759-1.361-2.291c-0.614-0.479-1.288-0.852-1.915-1.305c-0.779-0.557-1.942-0.465-3.005-0.31
			c-1.195,0.179-2.462,0.321-3.716,0.739c-1.359,0.454-2.494,1.525-3.853,2.6c-0.74,0.592-1.384,0.703-2.117,1.115
			c-0.426,0.237-0.889,0.637-1.339,0.823c-1.491,0.62-2.862,1.025-4.351,1.717c-0.99,0.459-2.17,1.225-3.073,2.23
			c-1.042,1.16-2.098,3.126-2.681,4.66c-0.423,1.111-0.714,2.122-0.817,3.17c-0.077,0.771-0.117,1.473-0.277,2.301
			c-0.327,1.684-0.754,3.274-0.455,4.571"/>
		<path fill="#FCE2BC" d="M11.083,92.512c0.662,0.829-0.086,1.179,0.174,1.957c0.111,0.342,0.839,0.674,1.065,0.982
			c0.294,0.396,0.468,0.959,0.722,1.379c0.393,0.672,0.906,1.529,1.581,1.838c0.838,0.382,2.155-0.295,2.922-0.602
			c0.709-0.284,1.534-0.67,2.089-1.352c0.643-0.786,1.093-2.01,1.602-2.912c1.051-1.864,1.698-4.373,1.941-6.556
			c0.266-2.368-1.487-3.47-3.295-4.368c-1.27-0.626-2.452-1.736-3.867-1.91c-1.647-0.19-2.247-0.164-3.585,0.81
			c-1.37,0.996-2.549,3.375-2.634,5.191c-0.045,0.952,0.476,1.944,0.83,2.861c0.138,0.364,0.291,0.672,0.328,1.09
			c0.05,0.541-0.522,0.716,0.06,1.271"/>
		<path fill="#EEBA00" d="M23.834,87.413c1.375,0.422,1.95,0.453,3.068,1.563c0.397,0.393,0.542,0.541,0.833,1
			c0.597,0.954,1.629,2.578,1.8,3.763c0.147,1.028-0.384,2.073-0.682,3.039c-0.322,1.037-0.394,2.718-1.312,3.38
			c-0.778,0.563-2.123,0.226-3.01,0.717c-0.994,0.544-1.903,1.285-2.9,1.615c-0.859,0.292-1.311,0.119-2.064-0.398
			c-0.671-0.466-2.201-1.084-2.645-1.793c-0.391-0.631,0.112-1.633,0.167-2.349c0.083-1.056-0.229-1.568,0.793-1.671
			c1.969-0.203,4.07,1.364,5.567-0.75c0.707-0.999,0.498-1.566,0.076-2.568c-0.28-0.681-0.239-0.576-0.702-1.104
			c-0.396-0.444-0.865-0.77-1.236-1.286c-0.747-1.031-1.671-2.54-1.037-3.789c0.671-1.306,2.617-0.099,3.49,0.279
			c0.187,0.078,0.381,0.156,0.539,0.316"/>
		<path fill="#F5B75C" d="M37.481,84.095c0.475,0.393,1.944,0.328,2.584,0.489c0.849,0.213,1.529,0.67,2.313,1.233
			c0.809,0.577,1.232,1.531,1.632,2.521c0.369,0.906,0.635,1.67,1.107,2.544c0.389,0.729,0.315,0.737,0.344,1.575
			c0.07,2.218-1.082,4.033-1.948,6.036c-0.287,0.665-0.829,1.886-1.344,2.347c-0.717,0.631-1.673,0.191-2.47,0.264
			c-0.919,0.084-1.708,0.412-2.668,0.486c-0.911,0.062-1.829,0.3-2.694,0.401c-2.233,0.253-1.354-2.939-2.805-4.113
			c-0.249-0.199-0.673-0.173-0.981-0.179c-0.308-0.002-0.86,0.25-1.127,0.188c-0.704-0.173-0.186-0.219-0.352-0.786
			c-0.081-0.27,0.056-0.363-0.097-0.688c-0.146-0.306-0.735-0.596-0.936-0.896c-0.816-1.239-1.185-3.648-0.627-5.037
			c0.554-1.38,1.171-1.907,2.339-2.463c1.322-0.619,1.77-1.783,2.663-3.066c0.811-1.17,1.253-1.21,2.457-0.94
			c0.415,0.096,1.254,0.484,1.61,0.507c0.339,0.02,0.438-0.246,0.768-0.254c0.205-0.009,0.528,0.169,0.753,0.191"/>
		<path fill="#FFE8AC" d="M38.711,71.403c0.364,0.707-1.449,2.971-1.571,3.909c-0.047,0.385,0.142,0.825,0.129,1.09
			c-0.03,0.743-0.322,1.605-0.445,2.357c-0.146,0.886-0.545,1.651,0.278,2.114c0.763,0.43,1.057-0.115,1.523-0.611
			c0.987-1.036,1.556-1.151,2.831-0.752c1.335,0.413,2.522,0.648,3.621,1.701c-0.05,0.283,0.094,0.382,0.086,0.597
			c-0.021,0.383-0.264,0.475-0.357,0.813c-0.148,0.519,0.013,0.861,0.012,1.328c0,1.154-0.019,1.587,0.913,2.261
			c0.688,0.491,1.175,0.965,1.997,0.757c0.667-0.173,1.629-0.45,2.178-0.881c0.745-0.587,1.137-1.613,1.773-2.329
			c0.651-0.726,1.199-1.298,1.758-2.308c0.484-0.865,1.142-1.603,0.931-2.621c-0.27-1.302-1.65-2.176-2.083-3.374
			c-0.333-0.924,0.294-1.625,0.736-2.406c0.803-1.431-0.005-1.963-0.959-3.083c-1.235-1.443-3.465-3.017-5.157-3.747
			c-2.041-0.88-4.272,0.394-5.601,1.815c-0.679,0.735-1.405,1.275-1.94,2.191c-0.453,0.77-0.873,1.571-1.306,2.356"/>
		<path fill="#EFA000" d="M48.033,72.892c1.027,0.898,3.087,2.594,3.18,4.282c-1.463-0.444-2.241,1.019-3.015,2.062
			c-0.62,0.827-2.366,2.575-3.373,1.712c0.301-1.808-1.768-1.839-2.767-2.423c0.396-1.355,1.21-2.351,1.737-3.651
			c0.483-1.199-0.051-2.747,0.692-3.802c0.814-0.12,1.176,0.205,1.929,0.716c0.465,0.318,1.679,0.869,1.682,1.423"/>
		<path fill="#D78300" d="M38.925,92.388c0.335-0.485,0.237-1.77,0.336-2.422c-0.663-0.523-0.326-1.789,0.163-2.341
			c0.988,0.376,0.927,1.195,1.251,2.09c0.237,0.64,0.848,1.281,0.822,1.979c-0.017,0.42-0.484,1.077-0.601,1.502
			c-0.061,0.215-0.298,0.374-0.348,0.586c-0.072,0.277,0.126,0.498,0.053,0.832c-0.115,0.543-0.672,1.079-0.902,1.59
			c-0.385,0.845-0.659,1.651-1.116,2.469c-0.156,0.288-0.776,1.058-0.781,1.363c-0.017,0.624,0.651,0.508,0.304,1.268
			c-0.164,0.36-0.731,0.529-1.07,0.625c-0.787,0.221-2.058,0.993-2.717,0.066c-0.224-0.309-0.268-0.833-0.539-1.198
			c-0.295-0.398-0.483-0.706-0.651-1.189c-0.22-0.631-0.012-1.108-0.33-1.726c-0.216-0.429-0.619-0.579-0.974-0.9
			c0.199-0.486,0.641-1.605,1.057-1.886c0.668-0.462,1.76-0.007,2.458-0.28c0.439-0.174,0.642-0.334,0.987-0.687
			c0.371-0.377,0.645-0.526,0.97-0.75c0.395-0.275,1.16-1.093,1.454-1.108"/>
		<path fill="#812910" d="M21.149,89.638c0.869,0.589,2.569,1.315,3.095,2.217c0.064,0.104,0.088,1.062,0.078,1.219
			c-0.034,0.511-0.288,0.916-0.513,1.354c-0.184,0.36-0.381,0.838-0.622,1.141c-0.518,0.647-0.545,0.445-1.277,0.535
			c-0.886,0.109-1.673-0.002-2.532,0.312c-0.551,0.199-1.442,1.158-1.986,0.416c-0.761-1.03,1.004-1.689,1.462-1.936
			c1.329-0.734,2.306-3.636,2.58-5.336"/>
		<path fill="#FFF9C7" d="M18.552,75.731c-0.864-0.222-0.845,0.634-1.524,0.758c-0.294,0.052-0.812-0.45-1.119-0.518
			c-0.409-0.086-0.893,0.019-1.302-0.014c-0.642-0.05-1.473-0.117-1.951-0.596c-0.597-0.591-0.58-2.115-0.633-2.958
			c-0.046-0.786-0.062-1.729,0.241-2.558c0.351-0.961,1.094-1.949,1.581-2.836c1.002-1.837,2.634-3.611,4.172-4.859
			c1.668-1.351,3.136-0.259,4.471,0.985c0.938,0.868,2.2,1.433,2.847,2.65c0.751,1.422,0.951,1.988,0.719,3.675
			c-0.236,1.723-1.577,3.925-2.902,4.854c-0.689,0.487-1.621,0.476-2.434,0.58c-0.325,0.041-0.61,0.047-0.933,0.206
			c-0.428,0.211-0.345,0.82-0.974,0.54"/>
		<path fill="#F4E9A4" d="M17.656,61.635c-0.823-1.071-1.061-1.584-2.299-2.086c-0.44-0.185-0.6-0.251-1.05-0.3
			c-0.937-0.104-2.525-0.29-3.474,0.11c-0.815,0.346-1.403,1.324-2.007,2.046c-0.658,0.791-1.884,1.637-2.041,2.799
			c-0.137,0.974,0.612,2.052,0.577,3.096c-0.037,1.162-0.255,2.352-0.137,3.42c0.1,0.924,0.394,1.262,1.061,1.712
			c0.592,0.396,1.62,1.51,2.309,1.581c0.612,0.072,1.179-0.862,1.688-1.246c0.76-0.574,1.254-0.521,0.956-1.516
			c-0.575-1.899-2.516-3.1-1.494-5.46c0.485-1.12,0.984-1.191,1.89-1.281c0.607-0.053,0.514-0.046,1.077,0.131
			c0.478,0.149,0.896,0.437,1.417,0.533c1.043,0.205,2.513,0.342,3.203-0.825c0.729-1.223-0.89-2.443-1.489-3.073
			c-0.131-0.132-0.257-0.276-0.435-0.341"/>
		<path fill="#812910" d="M16.985,65.141c-0.761-0.526-1.929-1.739-2.794-1.809c-0.102-0.008-0.824,0.416-0.939,0.506
			c-0.37,0.271-0.579,0.695-0.819,1.103c-0.199,0.338-0.482,0.743-0.617,1.108c-0.296,0.776-0.134,0.708,0.069,1.421
			c0.244,0.857,0.618,1.535,0.704,2.467c0.053,0.604-0.333,1.87,0.416,2.023c1.051,0.22,0.894-1.719,0.913-2.254
			c0.056-1.565,1.855-3.819,3.022-4.866"/>
	</g>
	<g>
		<path fill="#FDE3B7" d="M96.194,52.815c0.021-0.84,0.206-1.762,0.229-2.659c0.039-1.51-1.014-1.094-2.156-1.846
			c-0.783-0.506-1.393-1.411-2.391-1.646c-0.992-0.236-2.584-0.133-3.633-0.062c-0.391,0.028-1.326,0.148-1.594,0.436
			c-0.34,0.361-0.111,0.936,0.045,1.347c0.277,0.723,0.77,1.626,1.439,2.183c1.032,0.864,2.778,1.203,3.697,2.136
			c0.442,0.448,0.692,0.977,1.162,1.422c0.406,0.394,1.139,0.63,1.397,1.001c1.196-0.894,1.78-1.58,1.813-2.973"/>
		<path fill="#FFF3B8" d="M92.259,45.195c-0.021,1.61-0.041,3.218-0.062,4.83c-0.009,0.688,0.008,1.343-0.169,2
			c-0.23,0.835-0.826,1.412-1.501,1.938c-1.471,1.141-3.026,1.09-4.863,1.476c-1.001,0.206-1.664,0.359-2.746,0.349
			c-0.411-0.001-0.961,0.079-1.361,0c-1.086-0.197-1.804-1.357-2.548-2.002c-0.567-0.495-0.698-0.769-1.073-1.353
			c-0.428-0.666-1.08-0.78-1.584-1.252c-0.154-0.146-0.201-0.585-0.301-0.76c-0.191-0.345-0.541-0.629-0.712-0.978
			c-0.223-0.489-0.214-1.054-0.152-1.582c0.173-1.482,0.118-3.118,2.377-3.101c1.151,0.005,1.992,0.32,2.949,0.815
			c1.09,0.562,2.35,0.87,3.774,0.9c1.525,0.027,3.055,0.012,4.584,0.023c1.145,0.018,1.721-0.265,2.561-0.855
			c0.428-0.302,0.729-0.438,1.225-0.613"/>
		<path fill="#FACA8A" d="M85.19,47.443c-1.139-0.493-2.83-1.682-3.518-2.58c-0.375-0.484-0.428-0.615-0.416-1.192
			c0.02-0.846-0.091-1.749,0.065-2.588c0.755-0.034,1.599-0.729,2.132-1.058c0.766-0.474,1.664-0.947,2.281-1.54
			c0.52-0.5,1.217-1.04,1.531-1.609c0.336-0.595,0.424-1.473,0.613-2.113c0.188-0.617,0.377-1.456,0.236-2.119
			c-0.158-0.759-0.95-1.122-1.204-1.788c-0.626-1.667,2.45-1.287,3.794-1.282c0.914,0,1.652,0.174,2.459,0.337
			c0.929,0.187,2.146,0.166,2.988,0.585c1.791,0.873,1.101,3.035,1.804,4.291c0.408,0.725,1.417,1.31,1.63,2.128
			c0.041,0.157-0.092,0.386-0.027,0.536c0.037,0.081,0.332,0.366,0.33,0.366c0.117,0.342,0.08,0.713,0.081,1.1
			c-0.001,0.469-0.175,0.542-0.329,0.837c-0.339,0.661-0.627,1.389-0.968,2.084c-0.43,0.867-0.695,1.696-0.876,2.609
			c-0.092,0.467-0.027,1.129-0.36,1.535c-0.334,0.387-1.047,0.518-1.571,0.679c-0.551,0.165-0.875,0.406-1.401,0.651
			c-1.235,0.591-2.676,0.702-4.062,0.809c-0.896,0.069-1.605,0.193-2.528-0.014c-0.526-0.111-1.329-0.174-1.809-0.362
			c-0.303-0.125-0.564-0.476-0.873-0.63"/>
		<path fill="#FFFCED" d="M85.325,27.075c-0.056-0.901-1.486-1.584-1.986-1.686c-0.193-0.039-0.85-0.128-1.031,0.031
			c-0.267,0.237-0.385,1.005-0.632,1.347c-0.618,0.846-1.454,1.685-2.241,2.182c-1.232,0.779-2.197-0.384-3.416-0.458
			c-0.026-0.376-0.062-0.794-0.206-1.145c-0.209-0.506-0.88-0.848-1.014-1.333c-0.157-0.558,0.024-1.55-0.001-2.15
			c-0.553-0.155-1.282,0.188-1.881,0.094c-0.289-0.048-1.072-0.656-1.283-0.316c-0.111,0.166-0.032,0.357-0.086,0.512
			c0.002-0.005-0.198,0.439-0.183,0.365c-0.062,0.294-0.117,0.637-0.175,0.959c-0.155,0.85-0.314,1.246-0.67,1.989
			c-0.214,0.441-0.446,1.006-0.589,1.507c-0.159,0.556-0.215,0.647-0.489,1.11c-0.445,0.749-0.838,1.552-1.315,2.322
			c-1.063,1.736-1.059,4.263-1.762,6.163c-0.667,1.795-1.058,3.945-1.266,6.063c-0.114,1.148,0.261,2.305,0.578,3.26
			c0.217,0.648,0.376,1.543,0.675,2.076c0.566,1.016,2.111,1.497,2.931,1.649c0.491,0.09,0.99,0.061,1.458,0.332
			c0.661,0.384,1.321,0.812,2.124,0.858c0.711,0.039,1.425-0.01,2.134,0.012c0.884,0.021,1.792-0.519,2.591-1.056
			c0.896-0.604,1.867-1.218,2.705-1.994c0.911-0.848,1.365-1.978,1.998-3.201c0.344-0.672,0.819-1.018,1.237-1.57
			c0.245-0.322,0.447-0.76,0.731-1.061c0.943-1.006,1.881-1.821,2.791-2.87c0.605-0.694,1.232-1.652,1.525-2.652
			c0.339-1.147,0.336-2.8,0.135-3.989c-0.146-0.86-0.357-1.608-0.734-2.299c-0.275-0.512-0.553-0.958-0.787-1.541
			c-0.474-1.172-0.831-2.333-1.645-3.009"/>
		<path fill="#FCE2BC" d="M89.124,20.667c-0.908-0.244-0.449-0.765-1.006-1.141c-0.242-0.161-0.98-0.068-1.301-0.162
			c-0.418-0.124-0.805-0.402-1.201-0.559c-0.613-0.249-1.41-0.569-2.1-0.478c-0.854,0.109-1.631,1.071-2.118,1.579
			c-0.456,0.474-0.958,1.051-1.11,1.704c-0.174,0.75-0.005,1.692-0.022,2.465c-0.035,1.588,0.544,3.408,1.306,4.854
			c0.83,1.576,2.746,1.532,4.619,1.338c1.312-0.137,2.768,0.058,3.997-0.422c1.431-0.562,1.905-0.831,2.569-1.984
			c0.68-1.184,0.59-3.141-0.141-4.302c-0.382-0.607-1.243-1.003-1.939-1.425c-0.273-0.168-0.533-0.296-0.749-0.536
			c-0.277-0.319,0.11-0.663-0.61-0.761"/>
		<path fill="#EEBA00" d="M80.969,29.102c-1.312,0.309-1.792,0.527-3.198,0.304c-0.499-0.079-0.678-0.11-1.116-0.275
			c-0.912-0.343-2.47-0.917-3.133-1.583c-0.573-0.571-0.601-1.443-0.782-2.158c-0.194-0.778-0.875-1.847-0.422-2.637
			c0.385-0.671,1.635-1.019,2.144-1.692c0.572-0.743,0.989-1.577,1.649-2.199c0.578-0.532,1.021-0.617,1.868-0.606
			c0.75,0.011,2.271-0.243,2.944,0.015c0.597,0.224,0.633,1.056,0.902,1.521c0.396,0.689,0.875,0.872,0.089,1.359
			c-1.517,0.94-3.923,0.844-4.213,2.769c-0.137,0.916,0.283,1.175,1.072,1.622c0.526,0.304,0.446,0.257,1.056,0.39
			c0.521,0.116,1.049,0.12,1.578,0.282c1.065,0.333,2.486,0.884,2.517,1.915c0.03,1.086-2.094,1.143-2.968,1.275
			c-0.189,0.027-0.382,0.062-0.578,0.028"/>
		<path fill="#F5B75C" d="M71.293,36.804c-0.559-0.046-1.732,0.604-2.327,0.771c-0.786,0.211-1.543,0.219-2.432,0.194
			c-0.916-0.02-1.681-0.435-2.442-0.884c-0.701-0.406-1.259-0.769-2.026-1.114c-0.641-0.288-0.586-0.325-0.981-0.833
			c-1.034-1.341-0.893-2.938-1.071-4.541c-0.058-0.528-0.154-1.508,0.064-2.004c0.309-0.687,1.281-0.815,1.898-1.189
			c0.712-0.428,1.214-0.959,1.964-1.401c0.713-0.418,1.362-0.945,2.024-1.364c1.708-1.084,2.398,1.253,4.102,1.377
			c0.289,0.023,0.624-0.169,0.878-0.292c0.255-0.127,0.591-0.511,0.837-0.583c0.649-0.188,0.248,0.057,0.634,0.337
			c0.186,0.137,0.115,0.248,0.386,0.385c0.251,0.133,0.86,0.067,1.157,0.171c1.215,0.427,2.572,1.759,2.731,2.854
			c0.159,1.084-0.112,1.659-0.825,2.49c-0.801,0.932-0.654,1.836-0.816,2.998c-0.146,1.058-0.488,1.271-1.592,1.596
			c-0.383,0.117-1.238,0.219-1.535,0.357c-0.289,0.131-0.252,0.333-0.519,0.476c-0.161,0.087-0.503,0.119-0.698,0.195"/>
		<path fill="#FFE8AC" d="M75.885,45.162c-0.607-0.285-0.127-2.434-0.444-3.069c-0.128-0.255-0.479-0.452-0.585-0.62
			c-0.3-0.471-0.445-1.127-0.675-1.638c-0.271-0.609-0.282-1.25-1.159-1.192c-0.814,0.048-0.812,0.511-0.979,1.01
			c-0.348,1.044-0.758,1.353-1.974,1.638c-1.271,0.295-2.344,0.639-3.706,0.448c-0.085-0.203-0.248-0.203-0.333-0.339
			c-0.153-0.243,0.003-0.4-0.066-0.647c-0.11-0.378-0.394-0.53-0.596-0.818c-0.507-0.708-0.687-0.989-1.745-1.018
			c-0.776-0.019-1.386-0.115-1.963,0.356c-0.467,0.38-1.132,0.956-1.39,1.445c-0.348,0.675-0.215,1.471-0.418,2.178
			c-0.213,0.722-0.409,1.299-0.419,2.154c-0.013,0.733-0.222,1.465,0.396,2.004c0.794,0.696,2.306,0.665,3.19,1.227
			c0.678,0.431,0.476,1.127,0.459,1.793c-0.026,1.217,0.875,1.212,2.142,1.508c1.645,0.385,4.163,0.433,5.864,0.178
			c2.053-0.299,3.312-2.01,3.768-3.436c0.231-0.735,0.587-1.373,0.618-2.161c0.03-0.665,0.019-1.331,0.027-1.998"/>
		<path fill="#EFA000" d="M67.622,48.106c-1.233-0.13-3.663-0.319-4.485-1.329c1.39-0.334,1.378-1.56,1.553-2.527
			c0.14-0.765,0.795-2.574,1.997-2.459c0.552,1.243,2.255,0.403,3.324,0.352c0.279,1.004,0.052,1.96,0.194,2.982
			c0.136,0.937,1.255,1.673,1.112,2.639c-0.611,0.411-1.049,0.36-1.888,0.352c-0.521-0.006-1.753,0.158-2.002-0.179"/>
		<path fill="#D78300" d="M66.454,32.276c-0.06,0.436,0.591,1.192,0.794,1.635c0.773,0.053,1.057,0.971,0.899,1.515
			c-0.975,0.176-1.281-0.349-1.943-0.773c-0.477-0.297-1.258-0.438-1.542-0.881c-0.171-0.267-0.083-0.871-0.171-1.176
			c-0.046-0.162,0.077-0.354,0.027-0.506c-0.065-0.202-0.326-0.258-0.414-0.491c-0.146-0.388,0.074-0.95,0.034-1.361
			c-0.06-0.682-0.189-1.295-0.177-1.986c0.002-0.244,0.167-0.975,0.038-1.165c-0.265-0.398-0.76-0.047-0.807-0.66
			c-0.024-0.291,0.359-0.629,0.596-0.833c0.543-0.46,1.24-1.463,2.188-1.165c0.317,0.101,0.586,0.402,0.97,0.52
			c0.414,0.125,0.704,0.234,1.058,0.465c0.455,0.298,0.497,0.675,1.026,0.931c0.366,0.173,0.759,0.103,1.192,0.155
			c0.052,0.38,0.186,1.253-0.026,1.602c-0.347,0.561-1.437,0.728-1.889,1.189c-0.278,0.287-0.374,0.474-0.502,0.833
			c-0.135,0.382-0.295,0.588-0.459,0.866c-0.201,0.333-0.466,1.153-0.697,1.283"/>
		<path fill="#812910" d="M82.176,26.615c-0.972-0.009-2.678,0.249-3.504-0.092c-0.099-0.037-0.542-0.62-0.601-0.717
			c-0.199-0.338-0.174-0.691-0.176-1.052c-0.01-0.301-0.062-0.675,0-0.962c0.139-0.617,0.25-0.504,0.806-0.859
			c0.677-0.436,1.366-0.695,1.933-1.246c0.361-0.346,0.664-1.312,1.437-1.079c1.073,0.323-0.075,1.46-0.339,1.806
			c-0.761,1.003-0.279,3.201,0.246,4.365"/>
		<path fill="#FFF9C7" d="M90.428,34.137c0.804-0.218,0.414-0.74,0.912-1.101c0.213-0.157,0.861-0.054,1.144-0.146
			c0.37-0.116,0.718-0.379,1.065-0.531c0.545-0.234,1.253-0.536,1.852-0.437c0.751,0.116,1.408,1.064,1.825,1.57
			c0.386,0.468,0.813,1.04,0.933,1.678c0.137,0.738-0.035,1.657-0.04,2.408c-0.009,1.549-0.558,3.323-1.267,4.73
			c-0.763,1.53-2.439,1.46-4.078,1.247c-1.151-0.146-2.43,0.022-3.492-0.461c-1.246-0.569-1.657-0.838-2.211-1.976
			c-0.566-1.163-0.441-3.079,0.227-4.203c0.349-0.585,1.114-0.963,1.734-1.366c0.244-0.159,0.477-0.286,0.668-0.513
			c0.256-0.309-0.076-0.654,0.556-0.736"/>
		<path fill="#F4E9A4" d="M97.382,42.485c1.141,0.319,1.56,0.535,2.793,0.338c0.441-0.072,0.6-0.103,0.991-0.253
			c0.808-0.33,2.187-0.871,2.784-1.509c0.515-0.553,0.561-1.404,0.734-2.099c0.191-0.759,0.814-1.791,0.434-2.575
			c-0.317-0.657-1.406-1.014-1.836-1.671c-0.482-0.736-0.83-1.559-1.396-2.175c-0.488-0.531-0.877-0.617-1.619-0.617
			c-0.66,0-1.989-0.264-2.586-0.021c-0.53,0.208-0.581,1.021-0.826,1.473c-0.365,0.67-0.789,0.841-0.113,1.328
			c1.307,0.942,3.422,0.875,3.631,2.76c0.098,0.891-0.278,1.141-0.98,1.576c-0.469,0.28-0.396,0.238-0.936,0.359
			c-0.458,0.104-0.923,0.108-1.389,0.26c-0.943,0.309-2.202,0.827-2.254,1.835c-0.054,1.062,1.808,1.146,2.571,1.284
			c0.166,0.035,0.335,0.07,0.506,0.037"/>
		<path fill="#812910" d="M96.382,40.036c0.848,0.004,2.34,0.279,3.075-0.042c0.088-0.038,0.491-0.603,0.549-0.7
			c0.177-0.319,0.163-0.669,0.179-1.021c0.012-0.292,0.064-0.658,0.016-0.938c-0.103-0.608-0.202-0.493-0.682-0.852
			c-0.581-0.438-1.184-0.697-1.666-1.238c-0.309-0.349-0.552-1.293-1.231-1.077c-0.954,0.302,0.03,1.432,0.249,1.771
			c0.645,0.992,0.172,3.13-0.32,4.261"/>
	</g>
	<g>
		<path fill="#FDE3B7" d="M37.247,49.022c-0.027,1.167-0.227,2.438-0.254,3.684c-0.047,2.081,1.062,1.508,2.262,2.537
			c0.822,0.697,1.46,1.948,2.515,2.271c1.043,0.327,2.721,0.176,3.826,0.068c0.41-0.03,1.398-0.205,1.679-0.595
			c0.362-0.507,0.125-1.295-0.041-1.868c-0.287-0.985-0.805-2.227-1.508-3.005c-1.082-1.195-2.919-1.648-3.884-2.94
			c-0.465-0.619-0.724-1.347-1.219-1.974c-0.427-0.534-1.197-0.856-1.467-1.369c-1.263,1.235-1.88,2.185-1.92,4.111"/>
		<path fill="#FFF3B8" d="M41.357,59.542c0.028-2.217,0.056-4.443,0.086-6.67c0.012-0.952,0.001-1.855,0.191-2.766
			c0.243-1.15,0.876-1.954,1.588-2.677c1.551-1.58,3.194-1.514,5.126-2.048c1.057-0.292,1.755-0.496,2.895-0.492
			c0.434,0.003,1.012-0.106,1.435-0.004c1.141,0.284,1.893,1.878,2.677,2.768c0.593,0.675,0.731,1.058,1.122,1.857
			c0.448,0.929,1.136,1.075,1.667,1.731c0.159,0.195,0.208,0.799,0.312,1.047c0.201,0.471,0.569,0.864,0.744,1.351
			c0.235,0.665,0.222,1.451,0.156,2.181c-0.188,2.042-0.137,4.303-2.516,4.287c-1.216-0.003-2.1-0.435-3.101-1.113
			c-1.148-0.778-2.473-1.205-3.976-1.241c-1.608-0.034-3.221,0-4.827-0.024c-1.206-0.014-1.813,0.377-2.7,1.192
			c-0.451,0.411-0.771,0.604-1.292,0.85"/>
		<path fill="#FACA8A" d="M48.814,56.424c1.198,0.673,2.972,2.316,3.698,3.557c0.389,0.671,0.444,0.846,0.429,1.643
			c-0.027,1.173,0.089,2.419-0.079,3.567c-0.794,0.057-1.688,1.008-2.25,1.471c-0.809,0.658-1.759,1.312-2.411,2.133
			c-0.55,0.693-1.284,1.441-1.622,2.23c-0.354,0.817-0.447,2.021-0.654,2.923c-0.196,0.854-0.4,2.002-0.257,2.923
			c0.165,1.044,0.998,1.549,1.261,2.468c0.653,2.303-2.586,1.782-4.001,1.78c-0.96-0.004-1.736-0.239-2.588-0.468
			c-0.979-0.256-2.257-0.227-3.146-0.797c-1.882-1.209-1.147-4.188-1.882-5.927c-0.424-1-1.486-1.808-1.706-2.937
			c-0.042-0.21,0.097-0.531,0.032-0.734c-0.035-0.115-0.349-0.502-0.349-0.498c-0.121-0.473-0.078-0.993-0.079-1.525
			c0.004-0.646,0.187-0.742,0.349-1.156c0.361-0.915,0.67-1.923,1.028-2.881c0.457-1.197,0.738-2.34,0.937-3.611
			c0.096-0.632,0.029-1.559,0.384-2.113c0.352-0.541,1.104-0.718,1.659-0.942c0.58-0.238,0.924-0.567,1.477-0.909
			c1.305-0.812,2.822-0.971,4.281-1.12c0.949-0.101,1.695-0.271,2.665,0.004c0.556,0.159,1.4,0.252,1.904,0.508
			c0.318,0.17,0.591,0.648,0.915,0.861"/>
		<path fill="#FFFCED" d="M48.583,84.555c0.06,1.239,1.563,2.188,2.089,2.329c0.204,0.044,0.896,0.165,1.085-0.053
			c0.28-0.329,0.408-1.388,0.672-1.862c0.654-1.163,1.539-2.328,2.369-3.02c1.302-1.074,2.314,0.529,3.599,0.625
			c0.024,0.526,0.061,1.099,0.213,1.581c0.214,0.697,0.917,1.164,1.061,1.837c0.162,0.771-0.035,2.142-0.01,2.975
			c0.581,0.208,1.352-0.263,1.983-0.135c0.304,0.067,1.126,0.896,1.351,0.435c0.113-0.234,0.035-0.498,0.093-0.716
			c-0.001,0.014,0.208-0.602,0.192-0.497c0.067-0.41,0.127-0.881,0.19-1.334c0.165-1.174,0.335-1.709,0.712-2.734
			c0.228-0.619,0.479-1.401,0.627-2.089c0.17-0.769,0.229-0.898,0.521-1.537c0.47-1.035,0.889-2.139,1.394-3.212
			c1.129-2.389,1.134-5.89,1.884-8.505c0.71-2.493,1.131-5.458,1.359-8.384c0.125-1.592-0.269-3.173-0.595-4.495
			c-0.226-0.904-0.388-2.134-0.699-2.863c-0.594-1.41-2.22-2.066-3.085-2.282c-0.515-0.124-1.042-0.085-1.533-0.453
			c-0.693-0.533-1.388-1.118-2.235-1.182c-0.746-0.052-1.499,0.018-2.249-0.005c-0.93-0.031-1.887,0.715-2.729,1.458
			c-0.948,0.84-1.976,1.686-2.863,2.764c-0.961,1.17-1.442,2.726-2.116,4.425c-0.367,0.932-0.868,1.401-1.311,2.17
			c-0.256,0.445-0.472,1.054-0.772,1.472c-0.999,1.39-1.991,2.521-2.953,3.959c-0.64,0.96-1.307,2.29-1.617,3.67
			c-0.362,1.589-0.365,3.871-0.158,5.514c0.147,1.192,0.366,2.221,0.761,3.166c0.29,0.708,0.58,1.331,0.823,2.133
			c0.497,1.614,0.868,3.216,1.722,4.153"/>
		<path fill="#FCE2BC" d="M44.554,93.411c0.958,0.331,0.473,1.056,1.058,1.577c0.253,0.221,1.032,0.092,1.369,0.221
			c0.44,0.167,0.848,0.55,1.263,0.771c0.647,0.339,1.485,0.777,2.209,0.65c0.899-0.149,1.725-1.485,2.239-2.182
			c0.479-0.656,1.012-1.458,1.175-2.358c0.191-1.043,0.012-2.339,0.035-3.405c0.042-2.193-0.558-4.703-1.355-6.704
			c-0.867-2.174-2.885-2.106-4.857-1.836c-1.383,0.196-2.918-0.072-4.213,0.594c-1.51,0.782-2.012,1.149-2.717,2.748
			c-0.721,1.633-0.636,4.339,0.131,5.942c0.4,0.836,1.307,1.378,2.039,1.962c0.286,0.229,0.56,0.403,0.783,0.74
			c0.294,0.433-0.117,0.91,0.641,1.047"/>
		<path fill="#EEBA00" d="M53.183,81.747c1.381-0.433,1.892-0.738,3.367-0.431c0.526,0.103,0.718,0.152,1.177,0.381
			c0.959,0.469,2.598,1.257,3.294,2.174c0.6,0.791,0.625,1.99,0.816,2.981c0.2,1.07,0.913,2.542,0.428,3.641
			c-0.408,0.926-1.723,1.413-2.262,2.336c-0.604,1.037-1.046,2.181-1.748,3.041c-0.611,0.739-1.077,0.862-1.968,0.843
			c-0.792-0.008-2.395,0.339-3.104-0.011c-0.629-0.311-0.661-1.453-0.941-2.097c-0.418-0.951-0.922-1.207-0.091-1.878
			c1.604-1.312,4.136-1.179,4.45-3.841c0.15-1.257-0.293-1.613-1.121-2.236c-0.554-0.411-0.472-0.352-1.111-0.528
			c-0.547-0.153-1.105-0.167-1.663-0.392c-1.119-0.448-2.613-1.211-2.641-2.638c-0.029-1.498,2.207-1.585,3.13-1.764
			c0.2-0.04,0.402-0.093,0.612-0.048"/>
		<path fill="#F5B75C" d="M63.407,71.079c0.592,0.068,1.826-0.832,2.454-1.062c0.828-0.304,1.625-0.309,2.561-0.274
			c0.965,0.025,1.772,0.6,2.57,1.209c0.739,0.566,1.322,1.061,2.132,1.534c0.672,0.397,0.615,0.449,1.028,1.15
			c1.083,1.848,0.929,4.06,1.107,6.264c0.06,0.737,0.159,2.087-0.075,2.771c-0.326,0.949-1.352,1.127-2.003,1.648
			c-0.754,0.599-1.284,1.331-2.077,1.942c-0.754,0.58-1.435,1.302-2.135,1.885c-1.804,1.505-2.522-1.729-4.313-1.895
			c-0.307-0.026-0.662,0.238-0.927,0.409c-0.271,0.176-0.628,0.706-0.889,0.807c-0.681,0.26-0.261-0.079-0.664-0.467
			c-0.195-0.187-0.12-0.337-0.406-0.529c-0.262-0.178-0.908-0.086-1.214-0.229c-1.28-0.584-2.707-2.427-2.867-3.934
			c-0.165-1.497,0.124-2.299,0.876-3.443c0.851-1.293,0.7-2.541,0.875-4.146c0.161-1.462,0.522-1.756,1.686-2.213
			c0.402-0.148,1.304-0.304,1.619-0.486c0.302-0.181,0.265-0.469,0.545-0.66c0.171-0.124,0.534-0.161,0.737-0.276"/>
		<path fill="#FFE8AC" d="M58.607,59.549c0.638,0.393,0.121,3.365,0.452,4.242c0.133,0.351,0.502,0.621,0.616,0.854
			c0.315,0.643,0.463,1.549,0.702,2.265c0.284,0.84,0.294,1.721,1.217,1.642c0.858-0.068,0.857-0.703,1.034-1.395
			c0.372-1.445,0.803-1.878,2.089-2.271c1.337-0.411,2.471-0.893,3.902-0.628c0.09,0.279,0.259,0.279,0.352,0.461
			c0.158,0.342-0.005,0.562,0.067,0.899c0.112,0.528,0.409,0.729,0.624,1.122c0.532,0.987,0.718,1.368,1.832,1.405
			c0.817,0.032,1.457,0.16,2.067-0.497c0.496-0.526,1.199-1.317,1.473-1.999c0.37-0.931,0.231-2.029,0.453-3.009
			c0.223-0.993,0.43-1.792,0.445-2.972c0.018-1.021,0.241-2.026-0.408-2.771c-0.832-0.952-2.426-0.907-3.354-1.679
			c-0.715-0.604-0.498-1.562-0.478-2.479c0.034-1.682-0.914-1.676-2.249-2.079c-1.734-0.519-4.385-0.588-6.178-0.24
			c-2.162,0.426-3.497,2.794-3.983,4.765c-0.25,1.013-0.621,1.896-0.659,2.984c-0.036,0.918-0.025,1.839-0.037,2.765"/>
		<path fill="#EFA000" d="M67.324,55.467c1.298,0.173,3.856,0.44,4.718,1.823c-1.468,0.461-1.458,2.165-1.646,3.492
			c-0.15,1.062-0.849,3.562-2.114,3.403c-0.575-1.714-2.374-0.557-3.5-0.483c-0.288-1.383-0.047-2.698-0.193-4.109
			c-0.137-1.301-1.312-2.312-1.161-3.646c0.647-0.561,1.109-0.492,1.993-0.492c0.548,0.003,1.847-0.225,2.106,0.248"/>
		<path fill="#D78300" d="M68.486,77.326c0.063-0.605-0.619-1.642-0.83-2.261c-0.814-0.067-1.108-1.336-0.941-2.083
			c1.025-0.253,1.349,0.483,2.045,1.058c0.501,0.41,1.321,0.607,1.62,1.222c0.181,0.363,0.083,1.199,0.173,1.62
			c0.05,0.219-0.081,0.49-0.03,0.706c0.07,0.274,0.345,0.354,0.435,0.673c0.153,0.53-0.081,1.313-0.041,1.884
			c0.059,0.941,0.194,1.777,0.178,2.738c-0.004,0.335-0.179,1.349-0.045,1.612c0.278,0.541,0.796,0.061,0.849,0.904
			c0.024,0.404-0.385,0.873-0.632,1.151c-0.576,0.638-1.315,2.024-2.309,1.615c-0.334-0.138-0.617-0.552-1.019-0.719
			c-0.438-0.165-0.741-0.321-1.113-0.64c-0.478-0.415-0.521-0.933-1.076-1.282c-0.385-0.237-0.804-0.136-1.255-0.206
			c-0.054-0.529-0.193-1.731,0.035-2.214c0.364-0.777,1.517-1.016,1.994-1.648c0.293-0.402,0.396-0.661,0.53-1.149
			c0.145-0.54,0.315-0.818,0.491-1.201c0.21-0.466,0.493-1.599,0.739-1.782"/>
		<path fill="#812910" d="M51.902,85.179c1.021,0.01,2.821-0.345,3.688,0.119c0.103,0.058,0.569,0.855,0.634,0.991
			c0.202,0.465,0.174,0.952,0.181,1.45c0.007,0.414,0.056,0.932-0.011,1.33c-0.144,0.851-0.262,0.694-0.851,1.196
			c-0.711,0.6-1.442,0.959-2.038,1.712c-0.383,0.485-0.708,1.813-1.515,1.5c-1.134-0.441,0.082-2.018,0.362-2.501
			c0.805-1.386,0.307-4.421-0.242-6.024"/>
		<path fill="#FFF9C7" d="M43.239,74.812c-0.847,0.31-0.437,1.021-0.965,1.522c-0.226,0.215-0.906,0.077-1.203,0.198
			c-0.39,0.162-0.761,0.523-1.126,0.738c-0.576,0.325-1.322,0.739-1.955,0.617c-0.786-0.169-1.478-1.479-1.914-2.17
			c-0.405-0.642-0.851-1.433-0.975-2.316c-0.143-1.018,0.043-2.291,0.051-3.331c0.016-2.14,0.603-4.588,1.353-6.532
			c0.811-2.111,2.579-2.026,4.301-1.731c1.213,0.201,2.564-0.037,3.68,0.629c1.309,0.785,1.74,1.15,2.319,2.725
			c0.593,1.604,0.454,4.25-0.257,5.803c-0.368,0.812-1.18,1.332-1.832,1.893c-0.261,0.221-0.504,0.391-0.706,0.713
			c-0.27,0.422,0.078,0.893-0.589,1.023"/>
		<path fill="#F4E9A4" d="M35.954,63.295c-1.205-0.438-1.644-0.731-2.944-0.452c-0.464,0.099-0.632,0.138-1.044,0.345
			c-0.851,0.453-2.306,1.206-2.939,2.09c-0.544,0.768-0.596,1.938-0.784,2.906c-0.202,1.045-0.866,2.466-0.466,3.551
			c0.333,0.906,1.478,1.401,1.928,2.312c0.504,1.021,0.865,2.145,1.46,2.992c0.517,0.733,0.922,0.851,1.703,0.851
			c0.696,0,2.093,0.362,2.723,0.033c0.56-0.299,0.616-1.423,0.879-2.043c0.384-0.921,0.835-1.161,0.123-1.834
			c-1.374-1.296-3.6-1.2-3.812-3.803c-0.099-1.239,0.299-1.582,1.042-2.18c0.494-0.396,0.417-0.337,0.985-0.503
			c0.485-0.143,0.972-0.147,1.465-0.36c0.994-0.426,2.323-1.149,2.381-2.541c0.06-1.459-1.898-1.576-2.702-1.766
			c-0.178-0.046-0.353-0.097-0.536-0.048"/>
		<path fill="#812910" d="M36.996,66.678c-0.897-0.008-2.466-0.382-3.244,0.062c-0.089,0.054-0.515,0.825-0.573,0.967
			c-0.194,0.446-0.182,0.93-0.199,1.412c-0.014,0.4-0.07,0.907-0.02,1.303c0.109,0.831,0.213,0.678,0.718,1.17
			c0.608,0.594,1.24,0.954,1.747,1.705c0.322,0.479,0.578,1.784,1.292,1.486c1.004-0.417-0.026-1.979-0.254-2.443
			c-0.676-1.372-0.166-4.332,0.354-5.889"/>
	</g>
	<g>
		<path fill="#FDE3B7" d="M47.253,20.636c-0.011,0.601-0.113,1.261-0.128,1.896c-0.024,1.075,0.546,0.78,1.167,1.31
			c0.421,0.359,0.751,1.003,1.293,1.172c0.539,0.166,1.404,0.086,1.97,0.033c0.213-0.016,0.722-0.102,0.867-0.306
			c0.187-0.261,0.066-0.662-0.021-0.963c-0.148-0.505-0.414-1.148-0.776-1.545c-0.557-0.618-1.505-0.854-2.003-1.52
			c-0.237-0.32-0.37-0.694-0.625-1.014c-0.22-0.276-0.617-0.44-0.757-0.706c-0.652,0.636-0.972,1.124-0.991,2.117"/>
		<path fill="#FFF3B8" d="M49.373,26.06c0.016-1.144,0.031-2.291,0.047-3.439c0.006-0.488-0.001-0.955,0.095-1.425
			c0.128-0.593,0.452-1.006,0.82-1.38c0.8-0.815,1.644-0.778,2.643-1.054c0.541-0.152,0.902-0.253,1.488-0.25
			c0.224,0.001,0.523-0.059,0.742-0.008c0.586,0.146,0.975,0.966,1.376,1.426c0.308,0.353,0.378,0.549,0.58,0.959
			c0.229,0.479,0.584,0.553,0.856,0.894c0.083,0.101,0.108,0.412,0.163,0.538c0.105,0.245,0.293,0.448,0.384,0.698
			c0.122,0.343,0.114,0.744,0.081,1.123c-0.099,1.053-0.071,2.215-1.298,2.208c-0.626,0-1.082-0.225-1.599-0.574
			c-0.589-0.402-1.274-0.62-2.048-0.637c-0.828-0.02-1.657,0-2.487-0.014c-0.621-0.005-0.934,0.191-1.391,0.613
			c-0.233,0.214-0.397,0.312-0.666,0.442"/>
		<path fill="#FACA8A" d="M53.217,24.45c0.615,0.344,1.53,1.195,1.907,1.834c0.199,0.343,0.226,0.436,0.218,0.845
			c-0.013,0.604,0.045,1.248-0.042,1.84c-0.407,0.026-0.867,0.518-1.157,0.755c-0.419,0.339-0.908,0.68-1.244,1.101
			c-0.283,0.353-0.661,0.738-0.837,1.146c-0.181,0.422-0.229,1.042-0.335,1.508c-0.101,0.439-0.207,1.032-0.132,1.505
			c0.084,0.542,0.514,0.797,0.649,1.275c0.337,1.186-1.332,0.917-2.061,0.911c-0.498,0.006-0.896-0.12-1.334-0.237
			c-0.504-0.13-1.163-0.118-1.621-0.411c-0.97-0.623-0.59-2.154-0.971-3.055c-0.217-0.515-0.765-0.933-0.879-1.512
			c-0.021-0.111,0.05-0.273,0.016-0.38c-0.018-0.056-0.179-0.263-0.177-0.254c-0.064-0.243-0.041-0.513-0.042-0.785
			c0.003-0.336,0.097-0.382,0.179-0.597c0.188-0.47,0.343-0.991,0.529-1.483c0.235-0.619,0.381-1.207,0.482-1.861
			c0.05-0.329,0.017-0.806,0.2-1.088c0.181-0.278,0.567-0.37,0.854-0.487c0.301-0.121,0.477-0.292,0.761-0.472
			c0.674-0.415,1.457-0.496,2.206-0.576c0.488-0.049,0.875-0.138,1.374,0.005c0.285,0.084,0.72,0.128,0.981,0.262
			c0.164,0.086,0.304,0.332,0.473,0.442"/>
		<path fill="#FFFCED" d="M53.097,38.947c0.03,0.635,0.806,1.123,1.077,1.195c0.103,0.027,0.459,0.086,0.556-0.026
			c0.149-0.169,0.212-0.715,0.349-0.952c0.336-0.604,0.79-1.209,1.221-1.564c0.669-0.549,1.191,0.276,1.851,0.325
			c0.016,0.271,0.034,0.568,0.109,0.813c0.112,0.363,0.475,0.6,0.551,0.948c0.082,0.397-0.019,1.104-0.008,1.529
			c0.301,0.107,0.696-0.135,1.021-0.067c0.156,0.035,0.58,0.468,0.697,0.224c0.057-0.116,0.018-0.257,0.05-0.365
			c-0.004,0.002,0.106-0.316,0.097-0.261c0.033-0.204,0.063-0.453,0.095-0.684c0.088-0.604,0.176-0.886,0.368-1.412
			c0.119-0.318,0.248-0.72,0.324-1.075c0.087-0.396,0.118-0.46,0.269-0.792c0.245-0.532,0.458-1.102,0.72-1.655
			c0.58-1.229,0.583-3.031,0.969-4.38c0.365-1.284,0.581-2.812,0.698-4.323c0.067-0.817-0.136-1.631-0.305-2.315
			c-0.116-0.461-0.201-1.099-0.362-1.474c-0.304-0.726-1.142-1.064-1.587-1.177c-0.267-0.062-0.538-0.042-0.791-0.232
			c-0.357-0.277-0.714-0.573-1.149-0.605c-0.385-0.026-0.774,0.007-1.162-0.007c-0.477-0.016-0.971,0.367-1.407,0.754
			c-0.488,0.431-1.017,0.868-1.473,1.423c-0.495,0.605-0.744,1.404-1.091,2.28c-0.189,0.477-0.445,0.724-0.676,1.117
			c-0.132,0.23-0.243,0.546-0.399,0.76c-0.512,0.715-1.023,1.296-1.519,2.039c-0.33,0.497-0.674,1.179-0.836,1.894
			c-0.185,0.818-0.184,1.993-0.081,2.838c0.077,0.615,0.19,1.147,0.394,1.636c0.148,0.362,0.297,0.684,0.424,1.094
			c0.256,0.831,0.446,1.656,0.886,2.14"/>
		<path fill="#FCE2BC" d="M51.02,43.511c0.494,0.165,0.245,0.544,0.545,0.81c0.131,0.109,0.533,0.049,0.708,0.11
			c0.225,0.09,0.434,0.289,0.649,0.397c0.334,0.175,0.762,0.401,1.136,0.341c0.465-0.08,0.89-0.771,1.156-1.128
			c0.247-0.339,0.52-0.75,0.607-1.213c0.096-0.541,0.006-1.208,0.014-1.757c0.024-1.127-0.285-2.419-0.699-3.457
			c-0.444-1.113-1.482-1.083-2.502-0.938c-0.712,0.096-1.501-0.045-2.168,0.3c-0.78,0.407-1.039,0.593-1.402,1.415
			c-0.373,0.839-0.327,2.238,0.067,3.062c0.209,0.427,0.676,0.709,1.051,1.011c0.148,0.121,0.288,0.204,0.405,0.382
			c0.15,0.222-0.059,0.468,0.329,0.542"/>
		<path fill="#EEBA00" d="M55.468,37.498c0.711-0.223,0.974-0.381,1.732-0.223c0.271,0.055,0.372,0.078,0.61,0.196
			c0.491,0.243,1.336,0.646,1.695,1.123c0.31,0.403,0.323,1.024,0.42,1.535c0.104,0.548,0.472,1.305,0.222,1.873
			c-0.209,0.48-0.887,0.726-1.166,1.206c-0.312,0.529-0.539,1.125-0.902,1.565c-0.312,0.381-0.552,0.443-1.013,0.432
			c-0.408-0.002-1.234,0.176-1.597-0.002c-0.325-0.162-0.342-0.75-0.485-1.079c-0.217-0.49-0.476-0.621-0.047-0.969
			c0.825-0.675,2.13-0.605,2.292-1.979c0.075-0.652-0.153-0.839-0.58-1.157c-0.283-0.209-0.24-0.178-0.571-0.269
			c-0.284-0.076-0.571-0.086-0.857-0.2c-0.577-0.234-1.347-0.624-1.361-1.364c-0.014-0.771,1.138-0.812,1.612-0.906
			c0.104-0.022,0.21-0.048,0.316-0.022"/>
		<path fill="#F5B75C" d="M60.736,32.001c0.304,0.038,0.939-0.426,1.263-0.547c0.428-0.157,0.838-0.157,1.321-0.142
			c0.497,0.013,0.912,0.309,1.323,0.623c0.379,0.29,0.683,0.547,1.097,0.79c0.346,0.207,0.318,0.235,0.529,0.593
			c0.561,0.957,0.481,2.092,0.572,3.228c0.031,0.379,0.082,1.078-0.039,1.43c-0.167,0.486-0.697,0.578-1.033,0.85
			c-0.388,0.308-0.661,0.685-1.069,0.998c-0.389,0.3-0.741,0.676-1.099,0.974c-0.931,0.771-1.3-0.893-2.224-0.977
			c-0.157-0.015-0.339,0.121-0.477,0.211c-0.138,0.091-0.321,0.357-0.458,0.414c-0.352,0.133-0.135-0.042-0.342-0.241
			c-0.101-0.093-0.062-0.173-0.208-0.274c-0.137-0.086-0.468-0.043-0.627-0.117c-0.658-0.303-1.394-1.254-1.478-2.027
			c-0.084-0.77,0.066-1.189,0.453-1.777c0.438-0.662,0.36-1.305,0.452-2.131c0.079-0.756,0.268-0.907,0.867-1.144
			c0.208-0.078,0.673-0.154,0.834-0.248c0.158-0.099,0.134-0.24,0.281-0.342c0.089-0.063,0.274-0.082,0.381-0.141"/>
		<path fill="#FFE8AC" d="M58.26,26.063c0.329,0.201,0.063,1.732,0.234,2.179c0.069,0.184,0.259,0.32,0.314,0.445
			c0.164,0.334,0.241,0.796,0.365,1.166c0.147,0.433,0.153,0.885,0.627,0.848c0.443-0.036,0.438-0.364,0.532-0.721
			c0.192-0.745,0.415-0.963,1.076-1.167c0.69-0.214,1.273-0.464,2.01-0.327c0.048,0.145,0.136,0.146,0.183,0.239
			c0.083,0.177-0.003,0.288,0.035,0.467c0.057,0.268,0.21,0.373,0.321,0.573c0.273,0.508,0.369,0.708,0.944,0.729
			c0.419,0.011,0.75,0.077,1.065-0.258c0.257-0.274,0.616-0.682,0.757-1.033c0.192-0.48,0.122-1.044,0.233-1.549
			c0.117-0.512,0.221-0.924,0.23-1.528c0.008-0.529,0.125-1.047-0.209-1.428c-0.43-0.492-1.251-0.47-1.729-0.866
			c-0.369-0.31-0.259-0.805-0.246-1.279c0.017-0.863-0.472-0.863-1.159-1.073c-0.893-0.267-2.258-0.298-3.185-0.121
			c-1.112,0.218-1.799,1.438-2.05,2.456c-0.131,0.519-0.322,0.975-0.34,1.537c-0.018,0.474-0.013,0.949-0.018,1.422"/>
		<path fill="#EFA000" d="M62.75,23.96c0.672,0.09,1.989,0.223,2.433,0.939c-0.756,0.237-0.754,1.114-0.848,1.798
			c-0.077,0.548-0.436,1.836-1.089,1.752c-0.298-0.883-1.223-0.285-1.802-0.247c-0.152-0.716-0.025-1.391-0.104-2.119
			c-0.071-0.671-0.676-1.191-0.597-1.878c0.333-0.29,0.571-0.258,1.024-0.255c0.286,0.002,0.955-0.115,1.088,0.129"/>
		<path fill="#D78300" d="M63.351,35.224c0.033-0.315-0.318-0.851-0.428-1.169c-0.418-0.035-0.571-0.687-0.486-1.077
			c0.529-0.128,0.698,0.254,1.053,0.552c0.258,0.208,0.682,0.31,0.834,0.629c0.094,0.184,0.044,0.616,0.091,0.83
			c0.024,0.116-0.041,0.254-0.015,0.366c0.035,0.141,0.178,0.181,0.224,0.347c0.078,0.272-0.043,0.676-0.023,0.97
			c0.029,0.482,0.103,0.917,0.094,1.411c-0.003,0.174-0.096,0.694-0.026,0.833c0.146,0.278,0.412,0.028,0.439,0.464
			c0.013,0.211-0.198,0.449-0.328,0.596c-0.295,0.33-0.677,1.042-1.188,0.833c-0.173-0.076-0.319-0.288-0.526-0.375
			c-0.225-0.08-0.381-0.164-0.575-0.33c-0.246-0.216-0.269-0.478-0.553-0.657c-0.199-0.125-0.414-0.073-0.649-0.107
			c-0.027-0.275-0.096-0.895,0.021-1.146c0.185-0.396,0.779-0.516,1.023-0.848c0.154-0.207,0.207-0.339,0.276-0.591
			c0.075-0.275,0.162-0.417,0.25-0.621c0.112-0.237,0.257-0.824,0.383-0.915"/>
		<path fill="#812910" d="M54.804,39.272c0.527,0.004,1.454-0.183,1.902,0.058c0.055,0.025,0.292,0.437,0.328,0.511
			c0.105,0.233,0.09,0.489,0.093,0.746c0.003,0.21,0.029,0.478-0.003,0.686c-0.078,0.437-0.138,0.358-0.441,0.611
			c-0.367,0.31-0.742,0.496-1.051,0.882c-0.195,0.254-0.366,0.937-0.78,0.776c-0.584-0.229,0.043-1.037,0.188-1.289
			c0.414-0.714,0.157-2.278-0.127-3.103"/>
		<path fill="#FFF9C7" d="M50.343,33.924c-0.436,0.159-0.225,0.527-0.498,0.781c-0.115,0.118-0.466,0.042-0.619,0.107
			c-0.201,0.084-0.391,0.274-0.58,0.382c-0.295,0.161-0.684,0.382-1.008,0.316c-0.407-0.082-0.761-0.764-0.985-1.118
			c-0.209-0.332-0.439-0.738-0.501-1.19c-0.073-0.53,0.023-1.183,0.024-1.717c0.01-1.103,0.312-2.37,0.697-3.369
			c0.418-1.084,1.329-1.041,2.215-0.893c0.626,0.107,1.321-0.02,1.899,0.324c0.672,0.407,0.896,0.595,1.193,1.408
			c0.305,0.827,0.234,2.189-0.132,2.986c-0.192,0.419-0.608,0.685-0.945,0.976c-0.133,0.119-0.259,0.203-0.366,0.37
			c-0.136,0.216,0.042,0.46-0.299,0.523"/>
		<path fill="#F4E9A4" d="M46.589,27.991c-0.621-0.223-0.848-0.377-1.516-0.235c-0.241,0.053-0.327,0.07-0.54,0.179
			c-0.437,0.237-1.186,0.625-1.514,1.075c-0.282,0.398-0.307,1.004-0.404,1.499c-0.105,0.535-0.447,1.271-0.24,1.829
			c0.172,0.469,0.761,0.719,0.995,1.193c0.258,0.519,0.445,1.106,0.753,1.54c0.264,0.378,0.474,0.44,0.875,0.44
			c0.359-0.002,1.08,0.184,1.403,0.016c0.291-0.152,0.318-0.73,0.454-1.057c0.199-0.469,0.431-0.596,0.062-0.937
			c-0.708-0.673-1.854-0.617-1.963-1.965c-0.052-0.633,0.153-0.811,0.534-1.12c0.255-0.207,0.218-0.172,0.509-0.259
			c0.25-0.071,0.5-0.077,0.755-0.184c0.51-0.225,1.196-0.594,1.227-1.315c0.028-0.75-0.979-0.812-1.395-0.906
			c-0.089-0.024-0.18-0.048-0.275-0.025"/>
		<path fill="#812910" d="M47.125,29.735c-0.461-0.006-1.271-0.195-1.671,0.032c-0.045,0.027-0.265,0.425-0.297,0.497
			c-0.099,0.229-0.092,0.483-0.101,0.728c-0.008,0.209-0.035,0.468-0.01,0.666c0.055,0.431,0.11,0.352,0.37,0.609
			c0.314,0.306,0.64,0.49,0.899,0.876c0.167,0.247,0.298,0.917,0.668,0.768c0.516-0.214-0.015-1.02-0.133-1.262
			c-0.347-0.709-0.085-2.228,0.183-3.036"/>
	</g>
</g>
<polygon fill="#E7591F" stroke="#E7591F" stroke-linecap="round" stroke-linejoin="round" points="134.464,61.617 135.331,109.938 
	99.374,129.415 44.705,94.213 "/>
<polygon fill="#C95625" stroke="#C95625" stroke-linecap="round" stroke-linejoin="round" points="99.374,129.415 45.437,115.632 
	5.936,94.309 44.705,94.213 "/>
<path fill="#FFFFFF" d="M109.067,99.094c-1.869,2.917-3.557,6.451-7.269,7.795c-5.405,1.954-11.256-0.51-13.063-5.509
	c-1.808-4.997,1.11-10.639,6.516-12.594c3.5-1.265,6.796,0.053,9.848,1.255c1.213,0.488,4.23,1.413,5.117-1.022
	c0.888-2.429,1.611-4.663,1.869-5.354c0.455-1.221,1.101-2.029,3.23-0.343c2.152,1.705,1.462,2.778,0.923,3.799
	s-1.204,1.845-1.583,2.77c-1.107,2.726,0.83,5.109,2.408,5.655c1.681,0.575,1.982,0.649,3.727,1.057
	c1.158,0.268,0.85,1.445-0.074,2.755c-0.933,1.326-3.479,1.147-4.546,0.682c-1.097-0.481-1.621-0.73-2.921-1.387
	C111.96,98,109.744,98.037,109.067,99.094z M97.293,95.651c-1.295,0.468-1.956,1.904-1.484,3.21
	c0.477,1.312,1.901,1.995,3.198,1.525c1.296-0.469,1.966-1.909,1.49-3.223C100.024,95.86,98.588,95.181,97.293,95.651z"/>
<g>
	<g>
		<path fill="#FFFFFF" stroke="#E7591F" stroke-width="2.0913" d="M131.958,34.944c-0.386,6.031-4.918,12.551-10.08,14.492
			L15.653,89.385c-5.157,1.939-9.062-1.408-8.677-7.439l0.375-5.883C7.737,70.03,12.27,63.51,17.427,61.569l106.229-39.951
			c5.158-1.939,9.062,1.409,8.677,7.439L131.958,34.944z"/>
	</g>
	<path fill="#E7591F" d="M15.855,68.973l-0.577,4.537l2.482-2.498l0.369,4.105l-2.539,2.023l1.265,2.891l-2.36,3.508l-0.881-3.35
		l-1.634,4.279l-1.822-1.965l1.932-4.07l-2.32-0.215l1.226-4.709l2.182,0.773l0.277-4.42L15.855,68.973 M28.632,61.815
		c0.692,0.045,1.221,0.658,1.584,1.838c0.467,1.512,0.559,3.711,0.28,6.602c-0.286,2.938-0.815,5.371-1.593,7.309
		c-0.764,1.932-1.671,3.092-2.718,3.477c-0.189,0.07-0.369,0.1-0.538,0.09c-0.702-0.047-1.26-0.77-1.678-2.156
		c-0.028,0.59-0.058,1.104-0.094,1.537c-0.023,0.441-0.067,0.975-0.127,1.611l-0.813,8.354l-3.953,1.453l2.69-27.676l4.069-1.498
		l-0.466,2.781c0.217-0.625,0.435-1.172,0.641-1.627c0.208-0.459,0.423-0.836,0.641-1.133c0.218-0.303,0.44-0.49,0.668-0.568
		c0.225-0.086,0.478-0.18,0.753-0.281C28.209,61.839,28.427,61.803,28.632,61.815 M25.061,75.872
		c0.047,0.004,0.097-0.006,0.149-0.025c0.296-0.107,0.56-0.539,0.795-1.283c0.239-0.754,0.42-1.748,0.54-2.986
		c0.113-1.17,0.12-2.053,0.024-2.637c-0.079-0.484-0.226-0.732-0.439-0.748c-0.046-0.002-0.095,0.006-0.15,0.025
		c-0.609,0.225-1.037,1.596-1.278,4.104C24.473,74.659,24.593,75.843,25.061,75.872 M39.024,58.124
		c0.866,0.057,1.541,0.561,2.025,1.518c0.728,1.424,0.943,3.664,0.644,6.721c-0.276,2.838-0.952,5.262-2.03,7.273
		c-1.081,2.016-2.391,3.314-3.933,3.881c-0.5,0.184-0.958,0.26-1.371,0.234c-0.841-0.053-1.507-0.543-1.996-1.467
		c-0.723-1.391-0.945-3.541-0.661-6.441c0.281-2.902,0.964-5.396,2.044-7.494c1.074-2.102,2.36-3.424,3.854-3.979
		C38.12,58.178,38.594,58.096,39.024,58.124 M36.156,72.204c0.046,0.004,0.095-0.004,0.15-0.025c0.302-0.107,0.593-0.59,0.866-1.438
		c0.282-0.93,0.479-1.98,0.592-3.156c0.065-0.65,0.098-1.23,0.099-1.738c0-0.51-0.028-0.938-0.086-1.277
		c-0.054-0.336-0.136-0.59-0.247-0.748c-0.076-0.109-0.163-0.17-0.264-0.174c-0.045-0.002-0.092,0.006-0.141,0.021
		c-0.316,0.117-0.607,0.604-0.878,1.457c-0.258,0.756-0.452,1.818-0.584,3.188c-0.133,1.346-0.135,2.338-0.012,2.969
		C35.747,71.88,35.915,72.19,36.156,72.204 M51.011,53.555c0.692,0.043,1.223,0.656,1.584,1.836
		c0.465,1.512,0.559,3.711,0.279,6.602c-0.287,2.936-0.816,5.371-1.594,7.307c-0.762,1.934-1.671,3.09-2.718,3.477
		c-0.188,0.072-0.37,0.1-0.538,0.09c-0.7-0.047-1.261-0.764-1.676-2.158c-0.028,0.59-0.06,1.104-0.094,1.539
		c-0.025,0.443-0.067,0.98-0.128,1.611l-0.812,8.352l-3.953,1.457l2.689-27.676l4.069-1.5l-0.467,2.785
		c0.218-0.627,0.434-1.17,0.643-1.629c0.208-0.457,0.422-0.838,0.641-1.133c0.218-0.299,0.441-0.488,0.67-0.576
		c0.223-0.08,0.475-0.168,0.749-0.27C50.587,53.577,50.805,53.54,51.011,53.555 M47.44,67.608c0.047,0.004,0.097-0.002,0.151-0.025
		c0.292-0.104,0.557-0.535,0.795-1.285c0.236-0.75,0.416-1.742,0.537-2.982c0.114-1.17,0.121-2.055,0.023-2.639
		c-0.079-0.484-0.227-0.734-0.439-0.746c-0.045-0.002-0.096,0.004-0.149,0.025c-0.61,0.223-1.037,1.596-1.28,4.104
		C46.85,66.397,46.972,67.579,47.44,67.608 M60.846,49.864l-0.633,6.496c-1.18,0.562-1.866,1.832-2.058,3.809
		c-0.086,0.895-0.018,1.619,0.204,2.189c0.175,0.395,0.396,0.604,0.667,0.621c0.093,0.004,0.189-0.012,0.292-0.051
		c0.039-0.012,0.08-0.027,0.124-0.053c0.043-0.023,0.093-0.051,0.146-0.082l-0.585,6.021c-0.242,0.127-0.45,0.232-0.629,0.316
		c-0.179,0.084-0.326,0.145-0.446,0.186c-0.414,0.156-0.799,0.221-1.147,0.199c-0.625-0.041-1.146-0.363-1.563-0.963
		c-0.438-0.635-0.755-1.613-0.938-2.932c-0.183-1.316-0.201-2.734-0.055-4.252c0.263-2.699,0.945-5.127,2.051-7.293
		c1.095-2.141,2.353-3.473,3.778-3.998c0.084-0.029,0.191-0.061,0.323-0.098C60.507,49.942,60.664,49.901,60.846,49.864
		 M68.297,47.315c0.864,0.057,1.542,0.559,2.027,1.514c0.726,1.428,0.939,3.668,0.643,6.727c-0.276,2.832-0.952,5.26-2.031,7.273
		c-1.08,2.018-2.389,3.309-3.933,3.879c-0.499,0.184-0.956,0.264-1.367,0.236c-0.841-0.055-1.511-0.543-2-1.469
		c-0.723-1.393-0.944-3.541-0.662-6.441s0.963-5.398,2.043-7.49c1.076-2.105,2.361-3.43,3.856-3.982
		C67.395,47.374,67.868,47.29,68.297,47.315 M65.428,61.395c0.047,0.002,0.1-0.004,0.153-0.025c0.304-0.109,0.591-0.586,0.865-1.436
		c0.281-0.932,0.48-1.979,0.593-3.154c0.062-0.654,0.098-1.232,0.097-1.744c0.003-0.506-0.025-0.934-0.083-1.273
		c-0.056-0.338-0.14-0.59-0.25-0.75c-0.075-0.109-0.162-0.166-0.263-0.172c-0.045-0.006-0.095,0.004-0.143,0.021
		c-0.315,0.115-0.606,0.605-0.876,1.457c-0.258,0.754-0.452,1.816-0.587,3.188c-0.131,1.348-0.134,2.34-0.011,2.971
		C65.02,61.073,65.187,61.378,65.428,61.395 M80.196,42.188l-0.775,7.979c-0.256-0.174-0.488-0.268-0.707-0.281
		c-0.116-0.006-0.227,0.01-0.332,0.047c-0.531,0.195-0.973,0.693-1.325,1.49c-0.353,0.799-0.593,1.854-0.722,3.18l-0.795,8.219
		l-3.955,1.457l1.859-19.139l3.954-1.459l-0.571,3.818C77.695,44.468,78.819,42.7,80.196,42.188 M89.112,39.502
		c0.529,0.035,0.932,0.377,1.21,1.026c0.408,0.931,0.515,2.396,0.319,4.398L89.4,57.704l-3.953,1.455l0.983-10.133
		c0.084-0.879,0.084-1.463-0.004-1.762c-0.063-0.201-0.175-0.312-0.338-0.322c-0.071-0.004-0.154,0.012-0.247,0.047
		c-0.702,0.258-1.149,1.332-1.335,3.207l-0.938,9.654l-3.955,1.463l1.863-19.145l3.951-1.457c-0.052,0.477-0.1,0.912-0.145,1.32
		c-0.047,0.404-0.093,0.777-0.139,1.125l-0.156,1.232c0.916-2.686,2.033-4.269,3.354-4.757
		C88.626,39.532,88.88,39.487,89.112,39.502 M97.651,25.849l-1.075,11.076c-0.056,0.58-0.105,1.062-0.146,1.452
		c-0.044,0.393-0.078,0.691-0.104,0.895c-0.029,0.203-0.054,0.418-0.091,0.645c-0.033,0.23-0.074,0.486-0.109,0.764
		c0.898-2.943,1.962-4.64,3.19-5.09c0.242-0.091,0.467-0.129,0.671-0.117c0.51,0.032,0.895,0.387,1.156,1.064
		c0.367,0.94,0.457,2.414,0.262,4.413l-1.242,12.781l-3.954,1.459l0.985-10.139c0.086-0.871,0.098-1.465,0.033-1.771
		c-0.045-0.232-0.141-0.352-0.283-0.359c-0.049-0.004-0.102,0.006-0.162,0.027c-0.547,0.203-0.916,1.246-1.102,3.125l-0.936,9.654
		l-3.953,1.459l2.906-29.877L97.651,25.849 M109.792,31.997c0.865,0.054,1.541,0.56,2.028,1.515c0.724,1.424,0.937,3.664,0.64,6.721
		c-0.276,2.836-0.951,5.264-2.033,7.275c-1.079,2.016-2.392,3.311-3.93,3.879c-0.499,0.186-0.957,0.262-1.371,0.236
		c-0.844-0.053-1.508-0.545-1.998-1.469c-0.721-1.393-0.944-3.543-0.66-6.443c0.283-2.896,0.961-5.399,2.043-7.489
		c1.075-2.101,2.359-3.43,3.855-3.979C108.888,32.052,109.364,31.969,109.792,31.997 M106.92,46.077
		c0.048,0,0.098-0.004,0.151-0.025c0.305-0.111,0.592-0.59,0.864-1.439c0.284-0.93,0.478-1.98,0.595-3.154
		c0.064-0.648,0.099-1.23,0.099-1.74c-0.001-0.506-0.028-0.937-0.081-1.278c-0.06-0.334-0.144-0.585-0.251-0.747
		c-0.078-0.109-0.166-0.166-0.265-0.174c-0.045-0.001-0.095,0.007-0.144,0.022c-0.313,0.119-0.608,0.606-0.874,1.457
		c-0.26,0.755-0.454,1.818-0.586,3.191c-0.134,1.344-0.137,2.336-0.013,2.969C106.512,45.755,106.678,46.061,106.92,46.077
		 M119.935,17.624l-2.906,29.877l-3.956,1.457l2.906-29.875L119.935,17.624 M127.219,24.627l-0.575,4.535l2.481-2.498l0.371,4.104
		l-2.538,2.024l1.262,2.888l-2.359,3.506l-0.878-3.351l-1.636,4.282l-1.817-1.966l1.93-4.068l-2.32-0.217l1.223-4.705l2.185,0.776
		l0.276-4.427L127.219,24.627"/>
</g>
</svg>
