<?xml version="1.0" encoding="utf-8"?>
<!-- Generator: Adobe Illustrator 14.0.0, SVG Export Plug-In . SVG Version: 6.00 Build 43363)  -->
<!DOCTYPE svg PUBLIC "-//W3C//DTD SVG 1.1//EN" "http://www.w3.org/Graphics/SVG/1.1/DTD/svg11.dtd">
<svg version="1.1" id="Ebene_1" xmlns="http://www.w3.org/2000/svg" xmlns:xlink="http://www.w3.org/1999/xlink" x="0px" y="0px"
	 width="18px" height="18px" viewBox="0 0 18 18" enable-background="new 0 0 18 18" xml:space="preserve">
<g>
	<g>
		<g>
			<circle fill="#FFA700" cx="9" cy="9" r="9"/>
		</g>
	</g>
</g>
<g>
	<path fill="none" d="M13.258,7.927v3.741c0.944-0.002,1.713-0.838,1.713-1.871S14.202,7.928,13.258,7.927z"/>
	<polygon fill="#FFFFFF" points="13.258,6.291 13.258,6.291 13.258,6.291 	"/>
	<path fill="#FFFFFF" d="M11.133,7.184c-0.79,0.121-1.745,0.192-2.777,0.192c-2.707,0-4.9-0.486-4.9-1.085v6.376
		c0,1.178,0.93,2.136,2.074,2.136h5.652c0.933,0,1.714-0.64,1.976-1.512"/>
	<path fill="#FFFFFF" d="M13.256,11.668c0.001,0,0.001,0,0.002,0V7.927c-0.001,0-0.001,0-0.002,0"/>
	<path fill="#FFFFFF" d="M13.157,13.291c0.033,0.001,0.064,0.011,0.099,0.011c1.775,0,3.211-1.568,3.211-3.505
		c0-1.936-1.435-3.504-3.209-3.506l0,0c0,0.37-0.843,0.697-2.125,0.893 M13.256,7.927c0.001,0,0.001,0,0.002,0
		c0.944,0.001,1.713,0.837,1.713,1.87s-0.769,1.869-1.713,1.871c-0.001,0-0.001,0-0.002,0"/>
	<path fill="#FFFFFF" d="M8.355,7.376c1.032,0,1.987-0.071,2.777-0.192c1.282-0.195,2.125-0.522,2.125-0.893l0,0
		c0-0.599-2.195-1.084-4.902-1.084s-4.9,0.485-4.9,1.084S5.648,7.376,8.355,7.376z M4.925,6.28c0-0.312,1.536-0.564,3.431-0.564
		c1.896,0,3.432,0.252,3.432,0.564c0,0.312-1.535,0.564-3.432,0.564C6.461,6.845,4.925,6.592,4.925,6.28z"/>
	<ellipse fill="#FFA700" cx="8.355" cy="6.28" rx="3.432" ry="0.564"/>
</g>
<g>
	<path fill="#FFFFFF" d="M8.465,1.729c0,0,2.514,1.606,2.514,2.275S9.48,6.28,9.48,6.28H8.465c0,0,1.257-1.474,1.257-2.275
		S8.465,1.729,8.465,1.729z"/>
	<path fill="#FFFFFF" d="M7.958,0.257c0,0-0.937,1.539-0.937,2.343c0,0.802,1.443,1.874,1.443,1.874S7.742,3.335,7.742,2.666
		C7.742,1.998,7.958,0.257,7.958,0.257z"/>
</g>
</svg>
